<svg width="340" height="236" viewBox="0 0 340 236" fill="none" xmlns="http://www.w3.org/2000/svg">
<g filter="url(#filter0_b_1_442)">
<path d="M0 12C0 5.37259 5.37258 0 12 0H328C334.627 0 340 5.37258 340 12V224C340 230.627 334.627 236 328 236H12C5.37258 236 0 230.627 0 224V12Z" fill="url(#paint0_radial_1_442)"/>
<path d="M0.5 12C0.5 5.64873 5.64873 0.5 12 0.5H328C334.351 0.5 339.5 5.64873 339.5 12V224C339.5 230.351 334.351 235.5 328 235.5H12C5.64873 235.5 0.5 230.351 0.5 224V12Z" stroke="url(#paint1_linear_1_442)" stroke-opacity="0.2"/>
<g filter="url(#filter1_d_1_442)">
<g clip-path="url(#clip0_1_442)">
<rect x="28" y="24" width="53.3333" height="40" rx="8" fill="white"/>
<mask id="mask0_1_442" style="mask-type:luminance" maskUnits="userSpaceOnUse" x="28" y="24" width="54" height="40">
<path d="M28 24H81.3333V64H28V24Z" fill="white"/>
</mask>
<g mask="url(#mask0_1_442)">
<path fill-rule="evenodd" clip-rule="evenodd" d="M26.3333 24H86.3333V64H26.3333V24Z" fill="white"/>
<path fill-rule="evenodd" clip-rule="evenodd" d="M26.3333 24H86.3333V44H26.3333V24Z" fill="#DF0000"/>
<path fill-rule="evenodd" clip-rule="evenodd" d="M40.1665 27.35C38.588 27.6892 37.1742 28.5612 36.1626 29.8195C35.151 31.0778 34.6031 32.6459 34.611 34.2604C34.6188 35.8749 35.1818 37.4376 36.2056 38.686C37.2293 39.9345 38.6514 40.7927 40.2331 41.1166C39.327 41.3788 38.3781 41.4596 37.4407 41.3542C36.5033 41.2489 35.5959 40.9595 34.7706 40.5027C33.9453 40.0459 33.2183 39.4307 32.6313 38.6924C32.0443 37.954 31.6088 37.107 31.3498 36.2C30.8354 34.3767 31.0639 32.424 31.9852 30.7687C32.9066 29.1134 34.4458 27.8902 36.2665 27.3666C37.5998 26.9833 38.8331 26.975 40.1748 27.35H40.1665Z" fill="white"/>
<path fill-rule="evenodd" clip-rule="evenodd" d="M39.0832 33.1667L39.4915 34.4167L38.4082 33.65L37.3415 34.4333L37.7332 33.1667L36.6665 32.3917L37.9915 32.375L38.4082 31.125L38.8248 32.375H40.1415L39.0832 33.1667ZM40.5415 37.5L40.9582 38.7583L39.8748 37.9917L38.7998 38.7667L39.1998 37.5083L38.1332 36.725L39.4582 36.7167L39.8665 35.4583L40.2832 36.7083H41.6165L40.5415 37.5ZM45.4165 37.4667L45.8248 38.7333L44.7415 37.9583L43.6748 38.7333L44.0665 37.475L42.9998 36.7L44.3248 36.6833L44.7415 35.4333L45.1582 36.6833H46.4748L45.4165 37.4667ZM46.8665 33.1667L47.2748 34.425L46.1915 33.6583L45.1248 34.4333L45.5248 33.175L44.4498 32.3917L45.7832 32.3833L46.1832 31.125L46.5998 32.375H47.9332L46.8665 33.1667ZM43.0082 30.3083L43.4248 31.575L42.3415 30.8L41.2665 31.5833L41.6665 30.3167L40.5998 29.5333L41.9165 29.525L42.3332 28.2667L42.7498 29.5167H44.0832L43.0082 30.3083Z" fill="white"/>
</g>
</g>
</g>
<path d="M36.4055 85.5078C36.3459 84.9496 36.0945 84.5149 35.6513 84.2038C35.2124 83.8928 34.6413 83.7372 33.9382 83.7372C33.4439 83.7372 33.0199 83.8118 32.6662 83.9609C32.3125 84.1101 32.0419 84.3125 31.8544 84.5682C31.6669 84.8239 31.571 85.1158 31.5668 85.4439C31.5668 85.7166 31.6286 85.9531 31.7521 86.1534C31.88 86.3537 32.0526 86.5241 32.2699 86.6648C32.4872 86.8011 32.728 86.9162 32.9922 87.0099C33.2564 87.1037 33.5227 87.1825 33.7912 87.2464L35.0185 87.5533C35.5128 87.6683 35.9879 87.8239 36.4439 88.0199C36.9041 88.2159 37.3153 88.4631 37.6776 88.7614C38.044 89.0597 38.3338 89.4197 38.5469 89.8416C38.7599 90.2635 38.8665 90.7578 38.8665 91.3246C38.8665 92.0916 38.6705 92.767 38.2784 93.3509C37.8864 93.9304 37.3196 94.3842 36.5781 94.7124C35.8409 95.0362 34.9482 95.1982 33.8999 95.1982C32.8814 95.1982 31.9972 95.0405 31.2472 94.7251C30.5014 94.4098 29.9176 93.9496 29.4957 93.3445C29.0781 92.7393 28.8523 92.0021 28.8182 91.1328H31.1513C31.1854 91.5888 31.326 91.968 31.5732 92.2706C31.8203 92.5732 32.142 92.799 32.5384 92.9482C32.9389 93.0973 33.3864 93.1719 33.8807 93.1719C34.3963 93.1719 34.848 93.0952 35.2358 92.9418C35.6278 92.7841 35.9347 92.5668 36.1562 92.2898C36.3778 92.0085 36.4908 91.6804 36.495 91.3054C36.4908 90.9645 36.3906 90.6832 36.1946 90.4616C35.9986 90.2358 35.7237 90.0483 35.37 89.8991C35.0206 89.7457 34.6115 89.6094 34.1428 89.4901L32.6534 89.1065C31.5753 88.8295 30.723 88.4098 30.0966 87.8473C29.4744 87.2805 29.1634 86.5284 29.1634 85.5909C29.1634 84.8196 29.3722 84.1442 29.7898 83.5646C30.2116 82.9851 30.7848 82.5355 31.5092 82.2159C32.2337 81.892 33.054 81.7301 33.9702 81.7301C34.8991 81.7301 35.7131 81.892 36.4119 82.2159C37.1151 82.5355 37.6669 82.9808 38.0675 83.5518C38.468 84.1186 38.6747 84.7706 38.6875 85.5078H36.4055ZM40.8784 95V85.1818H43.1923V95H40.8784ZM42.0417 83.7884C41.6752 83.7884 41.3599 83.6669 41.0957 83.424C40.8315 83.1768 40.6994 82.8807 40.6994 82.5355C40.6994 82.1861 40.8315 81.8899 41.0957 81.647C41.3599 81.3999 41.6752 81.2763 42.0417 81.2763C42.4125 81.2763 42.7278 81.3999 42.9877 81.647C43.252 81.8899 43.3841 82.1861 43.3841 82.5355C43.3841 82.8807 43.252 83.1768 42.9877 83.424C42.7278 83.6669 42.4125 83.7884 42.0417 83.7884ZM47.8857 89.2472V95H45.5717V85.1818H47.7834V86.8501H47.8984C48.1243 86.3004 48.4844 85.8636 48.9787 85.5398C49.4773 85.2159 50.093 85.054 50.826 85.054C51.5036 85.054 52.0938 85.1989 52.5966 85.4886C53.1037 85.7784 53.4957 86.1982 53.7727 86.7479C54.054 87.2976 54.1925 87.9645 54.1882 88.7486V95H51.8743V89.1065C51.8743 88.4503 51.7038 87.9368 51.3629 87.5661C51.0263 87.1953 50.5597 87.0099 49.9631 87.0099C49.5582 87.0099 49.1982 87.0994 48.8828 87.2784C48.5717 87.4531 48.3267 87.7067 48.1477 88.0391C47.973 88.3714 47.8857 88.7741 47.8857 89.2472ZM60.8104 98.8864C59.9794 98.8864 59.2656 98.7734 58.669 98.5476C58.0724 98.326 57.593 98.0277 57.2308 97.6527C56.8686 97.2777 56.6172 96.8622 56.4766 96.4062L58.5604 95.9013C58.6541 96.093 58.7905 96.2827 58.9695 96.4702C59.1484 96.6619 59.3892 96.8196 59.6918 96.9432C59.9986 97.071 60.3842 97.1349 60.8487 97.1349C61.505 97.1349 62.0483 96.9751 62.4787 96.6555C62.9091 96.3402 63.1243 95.8203 63.1243 95.0959V93.2358H63.0092C62.8899 93.4744 62.7152 93.7195 62.4851 93.9709C62.2592 94.2223 61.9588 94.4332 61.5838 94.6037C61.2131 94.7741 60.7464 94.8594 60.1839 94.8594C59.4297 94.8594 58.7457 94.6825 58.1321 94.3288C57.5227 93.9709 57.0369 93.4382 56.6747 92.7308C56.3168 92.0192 56.1378 91.1286 56.1378 90.0589C56.1378 88.9808 56.3168 88.071 56.6747 87.3295C57.0369 86.5838 57.5249 86.0192 58.1385 85.6357C58.7521 85.2479 59.4361 85.054 60.1903 85.054C60.7656 85.054 61.2386 85.152 61.6094 85.348C61.9844 85.5398 62.2827 85.772 62.5043 86.0447C62.7259 86.3132 62.8942 86.5668 63.0092 86.8054H63.1371V85.1818H65.419V95.1598C65.419 95.9993 65.2188 96.6939 64.8182 97.2436C64.4176 97.7933 63.87 98.2045 63.1754 98.4773C62.4808 98.75 61.6925 98.8864 60.8104 98.8864ZM60.8295 93.044C61.3196 93.044 61.7372 92.9247 62.0824 92.6861C62.4276 92.4474 62.6896 92.1044 62.8686 91.657C63.0476 91.2095 63.1371 90.6726 63.1371 90.0462C63.1371 89.4283 63.0476 88.8871 62.8686 88.4226C62.6939 87.9581 62.4339 87.598 62.0888 87.3423C61.7479 87.0824 61.3281 86.9524 60.8295 86.9524C60.3139 86.9524 59.8835 87.0866 59.5384 87.3551C59.1932 87.6236 58.9332 87.9922 58.7585 88.4609C58.5838 88.9254 58.4964 89.4538 58.4964 90.0462C58.4964 90.647 58.5838 91.1733 58.7585 91.625C58.9375 92.0724 59.1996 92.4219 59.5447 92.6733C59.8942 92.9205 60.3224 93.044 60.8295 93.044ZM70.6158 95.1982C69.9936 95.1982 69.4332 95.0874 68.9347 94.8658C68.4403 94.6399 68.0483 94.3075 67.7585 93.8686C67.473 93.4297 67.3303 92.8885 67.3303 92.245C67.3303 91.6911 67.4325 91.233 67.6371 90.8707C67.8416 90.5085 68.1207 90.2188 68.4744 90.0014C68.8281 89.7841 69.2266 89.62 69.6697 89.5092C70.1172 89.3942 70.5795 89.3111 71.0568 89.2599C71.6321 89.2003 72.0987 89.147 72.4567 89.1001C72.8146 89.049 73.0746 88.9723 73.2365 88.87C73.4027 88.7635 73.4858 88.5994 73.4858 88.3778V88.3395C73.4858 87.858 73.343 87.4851 73.0575 87.2209C72.772 86.9567 72.3608 86.8246 71.8239 86.8246C71.2571 86.8246 70.8075 86.9482 70.4751 87.1953C70.147 87.4425 69.9254 87.7344 69.8104 88.071L67.6499 87.7642C67.8203 87.1676 68.1016 86.669 68.4936 86.2685C68.8857 85.8636 69.3651 85.5611 69.9318 85.3608C70.4986 85.1562 71.125 85.054 71.8111 85.054C72.2841 85.054 72.755 85.1094 73.2237 85.2202C73.6925 85.331 74.1207 85.5142 74.5085 85.7699C74.8963 86.0213 75.2074 86.3643 75.4418 86.799C75.6804 87.2337 75.7997 87.777 75.7997 88.429V95H73.5753V93.6513H73.4986C73.358 93.924 73.1598 94.1797 72.9041 94.4183C72.6527 94.6527 72.3352 94.8423 71.9517 94.9872C71.5724 95.1278 71.1271 95.1982 70.6158 95.1982ZM71.2166 93.4979C71.6811 93.4979 72.0838 93.4062 72.4247 93.223C72.7656 93.0355 73.0277 92.7884 73.2109 92.4815C73.3984 92.1747 73.4922 91.8402 73.4922 91.478V90.321C73.4197 90.3807 73.2962 90.4361 73.1214 90.4872C72.951 90.5384 72.7592 90.5831 72.5462 90.6214C72.3331 90.6598 72.1222 90.6939 71.9134 90.7237C71.7045 90.7536 71.5234 90.7791 71.37 90.8004C71.0249 90.8473 70.7159 90.924 70.4432 91.0305C70.1705 91.1371 69.9553 91.2862 69.7976 91.478C69.6399 91.6655 69.5611 91.9084 69.5611 92.2067C69.5611 92.6328 69.7166 92.9545 70.0277 93.1719C70.3388 93.3892 70.7351 93.4979 71.2166 93.4979ZM78.1264 98.6818V85.1818H80.402V86.8054H80.5362C80.6555 86.5668 80.8239 86.3132 81.0412 86.0447C81.2585 85.772 81.5526 85.5398 81.9233 85.348C82.294 85.152 82.767 85.054 83.3423 85.054C84.1009 85.054 84.7848 85.2479 85.3942 85.6357C86.0078 86.0192 86.4936 86.5881 86.8516 87.3423C87.2138 88.0923 87.3949 89.0128 87.3949 90.1037C87.3949 91.1818 87.218 92.098 86.8643 92.8523C86.5107 93.6065 86.0291 94.1818 85.4197 94.5781C84.8104 94.9744 84.12 95.1726 83.3487 95.1726C82.7862 95.1726 82.3196 95.0788 81.9489 94.8913C81.5781 94.7038 81.2798 94.478 81.054 94.2138C80.8324 93.9453 80.6598 93.6918 80.5362 93.4531H80.4403V98.6818H78.1264ZM80.3956 90.0909C80.3956 90.7259 80.4851 91.282 80.6641 91.7592C80.8473 92.2365 81.1094 92.6094 81.4503 92.8778C81.7955 93.142 82.2131 93.2741 82.7031 93.2741C83.2145 93.2741 83.6428 93.1378 83.9879 92.8651C84.3331 92.5881 84.593 92.2109 84.7678 91.7337C84.9467 91.2521 85.0362 90.7045 85.0362 90.0909C85.0362 89.4815 84.9489 88.9403 84.7741 88.4673C84.5994 87.9943 84.3395 87.6236 83.9943 87.3551C83.6491 87.0866 83.2188 86.9524 82.7031 86.9524C82.2088 86.9524 81.7891 87.0824 81.4439 87.3423C81.0987 87.6023 80.8366 87.9666 80.6577 88.4354C80.483 88.9041 80.3956 89.456 80.3956 90.0909ZM93.6591 95.1918C92.7003 95.1918 91.8693 94.9808 91.1662 94.5589C90.4631 94.1371 89.9176 93.5469 89.5298 92.7884C89.1463 92.0298 88.9545 91.1435 88.9545 90.1293C88.9545 89.1151 89.1463 88.2266 89.5298 87.4638C89.9176 86.701 90.4631 86.1087 91.1662 85.6868C91.8693 85.2649 92.7003 85.054 93.6591 85.054C94.6179 85.054 95.4489 85.2649 96.152 85.6868C96.8551 86.1087 97.3984 86.701 97.782 87.4638C98.1697 88.2266 98.3636 89.1151 98.3636 90.1293C98.3636 91.1435 98.1697 92.0298 97.782 92.7884C97.3984 93.5469 96.8551 94.1371 96.152 94.5589C95.4489 94.9808 94.6179 95.1918 93.6591 95.1918ZM93.6719 93.3381C94.1918 93.3381 94.6264 93.1953 94.9759 92.9098C95.3253 92.62 95.5852 92.2322 95.7557 91.7464C95.9304 91.2607 96.0178 90.7195 96.0178 90.1229C96.0178 89.522 95.9304 88.9787 95.7557 88.4929C95.5852 88.0028 95.3253 87.6129 94.9759 87.3232C94.6264 87.0334 94.1918 86.8885 93.6719 86.8885C93.1392 86.8885 92.696 87.0334 92.3423 87.3232C91.9929 87.6129 91.7308 88.0028 91.5561 88.4929C91.3857 88.9787 91.3004 89.522 91.3004 90.1229C91.3004 90.7195 91.3857 91.2607 91.5561 91.7464C91.7308 92.2322 91.9929 92.62 92.3423 92.9098C92.696 93.1953 93.1392 93.3381 93.6719 93.3381ZM100.328 95V85.1818H102.571V86.8182H102.673C102.852 86.2514 103.159 85.8146 103.594 85.5078C104.033 85.1967 104.534 85.0412 105.096 85.0412C105.224 85.0412 105.367 85.0476 105.524 85.0604C105.686 85.0689 105.82 85.0838 105.927 85.1051V87.2337C105.829 87.1996 105.673 87.1697 105.46 87.1442C105.252 87.1143 105.049 87.0994 104.853 87.0994C104.431 87.0994 104.052 87.1911 103.715 87.3743C103.383 87.5533 103.121 87.8026 102.929 88.1222C102.737 88.4418 102.642 88.8104 102.642 89.228V95H100.328ZM111.407 95.1918C110.422 95.1918 109.572 94.9872 108.856 94.5781C108.145 94.1648 107.597 93.581 107.213 92.8267C106.83 92.0682 106.638 91.1754 106.638 90.1484C106.638 89.1385 106.83 88.2521 107.213 87.4893C107.601 86.7223 108.142 86.1257 108.837 85.6996C109.532 85.2692 110.348 85.054 111.285 85.054C111.89 85.054 112.461 85.152 112.998 85.348C113.539 85.5398 114.017 85.8381 114.43 86.2429C114.848 86.6477 115.176 87.1634 115.414 87.7898C115.653 88.4119 115.772 89.1534 115.772 90.0142V90.7237H107.725V89.1641H113.554C113.55 88.7209 113.454 88.3267 113.267 87.9815C113.079 87.6321 112.817 87.3572 112.48 87.157C112.148 86.9567 111.76 86.8565 111.317 86.8565C110.844 86.8565 110.429 86.9716 110.071 87.2017C109.713 87.4276 109.434 87.7259 109.233 88.0966C109.037 88.4631 108.937 88.8658 108.933 89.3047V90.6662C108.933 91.2372 109.037 91.7273 109.246 92.1364C109.455 92.5412 109.747 92.8523 110.122 93.0696C110.497 93.2827 110.936 93.3892 111.439 93.3892C111.775 93.3892 112.08 93.3423 112.353 93.2486C112.625 93.1506 112.862 93.0078 113.062 92.8203C113.262 92.6328 113.414 92.4006 113.516 92.1236L115.676 92.3665C115.54 92.9375 115.28 93.4361 114.897 93.8622C114.517 94.2841 114.032 94.6122 113.439 94.8466C112.847 95.0767 112.169 95.1918 111.407 95.1918Z" fill="#F9F9F9"/>
<path d="M29.233 121V110.818H30.4659V115.352H35.8949V110.818H37.1278V121H35.8949V116.446H30.4659V121H29.233ZM42.6388 121.159C41.9031 121.159 41.2683 120.997 40.7347 120.672C40.2044 120.344 39.7951 119.886 39.5067 119.3C39.2217 118.71 39.0792 118.024 39.0792 117.241C39.0792 116.459 39.2217 115.77 39.5067 115.173C39.7951 114.573 40.1961 114.106 40.7099 113.771C41.2269 113.433 41.8301 113.264 42.5195 113.264C42.9173 113.264 43.31 113.33 43.6978 113.463C44.0856 113.596 44.4386 113.811 44.7567 114.109C45.0749 114.404 45.3285 114.795 45.5174 115.283C45.7063 115.77 45.8008 116.37 45.8008 117.082V117.58H39.9144V116.565H44.6076C44.6076 116.134 44.5214 115.75 44.3491 115.412C44.18 115.074 43.9381 114.807 43.6232 114.612C43.3117 114.416 42.9438 114.318 42.5195 114.318C42.0522 114.318 41.6478 114.434 41.3065 114.666C40.9684 114.895 40.7082 115.193 40.5259 115.561C40.3436 115.929 40.2525 116.323 40.2525 116.744V117.42C40.2525 117.997 40.3519 118.486 40.5508 118.887C40.753 119.285 41.033 119.588 41.391 119.797C41.7489 120.002 42.1649 120.105 42.6388 120.105C42.9471 120.105 43.2255 120.062 43.4741 119.976C43.726 119.886 43.9431 119.754 44.1254 119.578C44.3076 119.399 44.4485 119.177 44.5479 118.912L45.6815 119.23C45.5621 119.615 45.3616 119.953 45.0799 120.244C44.7982 120.533 44.4502 120.758 44.0359 120.92C43.6216 121.08 43.1559 121.159 42.6388 121.159ZM49.8327 121.179C49.3488 121.179 48.9097 121.088 48.5153 120.906C48.1209 120.72 47.8076 120.453 47.5756 120.105C47.3436 119.754 47.2276 119.33 47.2276 118.832C47.2276 118.395 47.3138 118.04 47.4862 117.768C47.6585 117.493 47.8888 117.278 48.1772 117.122C48.4656 116.966 48.7837 116.85 49.1317 116.774C49.4831 116.695 49.8361 116.632 50.1907 116.585C50.6547 116.526 51.0309 116.481 51.3192 116.451C51.6109 116.418 51.823 116.363 51.9556 116.287C52.0915 116.211 52.1594 116.078 52.1594 115.889V115.849C52.1594 115.359 52.0252 114.978 51.7567 114.706C51.4916 114.434 51.0889 114.298 50.5487 114.298C49.9885 114.298 49.5494 114.421 49.2312 114.666C48.913 114.911 48.6893 115.173 48.56 115.452L47.4464 115.054C47.6452 114.59 47.9104 114.229 48.2418 113.97C48.5766 113.708 48.9412 113.526 49.3356 113.423C49.7333 113.317 50.1244 113.264 50.5089 113.264C50.7541 113.264 51.0359 113.294 51.354 113.354C51.6755 113.41 51.9854 113.528 52.2837 113.707C52.5853 113.886 52.8356 114.156 53.0344 114.517C53.2333 114.878 53.3327 115.362 53.3327 115.969V121H52.1594V119.966H52.0998C52.0202 120.132 51.8877 120.309 51.7021 120.498C51.5165 120.687 51.2695 120.848 50.9613 120.98C50.6531 121.113 50.2769 121.179 49.8327 121.179ZM50.0117 120.125C50.4757 120.125 50.8668 120.034 51.185 119.852C51.5065 119.669 51.7485 119.434 51.9109 119.146C52.0766 118.857 52.1594 118.554 52.1594 118.236V117.162C52.1097 117.222 52.0004 117.276 51.8313 117.326C51.6656 117.372 51.4734 117.414 51.2546 117.45C51.0392 117.483 50.8287 117.513 50.6232 117.54C50.421 117.563 50.257 117.583 50.131 117.599C49.8261 117.639 49.5411 117.704 49.2759 117.793C49.0141 117.879 48.802 118.01 48.6396 118.186C48.4805 118.358 48.4009 118.594 48.4009 118.892C48.4009 119.3 48.5517 119.608 48.8533 119.817C49.1583 120.022 49.5444 120.125 50.0117 120.125ZM58.3578 121.159C57.7214 121.159 57.1596 120.998 56.6724 120.677C56.1852 120.352 55.804 119.895 55.5289 119.305C55.2538 118.711 55.1163 118.01 55.1163 117.202C55.1163 116.4 55.2538 115.704 55.5289 115.114C55.804 114.524 56.1868 114.068 56.6774 113.746C57.1679 113.425 57.7347 113.264 58.3777 113.264C58.8748 113.264 59.2676 113.347 59.5559 113.513C59.8476 113.675 60.0697 113.861 60.2221 114.07C60.3779 114.275 60.4989 114.444 60.585 114.577H60.6845V110.818H61.8578V121H60.7243V119.827H60.585C60.4989 119.966 60.3762 120.142 60.2172 120.354C60.0581 120.562 59.831 120.75 59.536 120.915C59.2411 121.078 58.8483 121.159 58.3578 121.159ZM58.5169 120.105C58.9875 120.105 59.3852 119.982 59.71 119.737C60.0349 119.489 60.2818 119.146 60.4508 118.708C60.6199 118.267 60.7044 117.759 60.7044 117.182C60.7044 116.612 60.6215 116.113 60.4558 115.685C60.2901 115.254 60.0448 114.92 59.72 114.681C59.3952 114.439 58.9941 114.318 58.5169 114.318C58.0197 114.318 57.6054 114.446 57.274 114.701C56.9458 114.953 56.6989 115.296 56.5332 115.73C56.3708 116.161 56.2896 116.645 56.2896 117.182C56.2896 117.725 56.3725 118.219 56.5382 118.663C56.7072 119.104 56.9558 119.455 57.2839 119.717C57.6154 119.976 58.0263 120.105 58.5169 120.105ZM76.8571 115.909C76.8571 116.983 76.6632 117.911 76.2754 118.693C75.8876 119.475 75.3556 120.079 74.6795 120.503C74.0034 120.927 73.2311 121.139 72.3627 121.139C71.4944 121.139 70.7221 120.927 70.046 120.503C69.3699 120.079 68.8379 119.475 68.4501 118.693C68.0623 117.911 67.8684 116.983 67.8684 115.909C67.8684 114.835 68.0623 113.907 68.4501 113.125C68.8379 112.343 69.3699 111.74 70.046 111.315C70.7221 110.891 71.4944 110.679 72.3627 110.679C73.2311 110.679 74.0034 110.891 74.6795 111.315C75.3556 111.74 75.8876 112.343 76.2754 113.125C76.6632 113.907 76.8571 114.835 76.8571 115.909ZM75.6639 115.909C75.6639 115.027 75.5164 114.283 75.2214 113.677C74.9297 113.07 74.5337 112.611 74.0332 112.3C73.536 111.988 72.9792 111.832 72.3627 111.832C71.7463 111.832 71.1878 111.988 70.6873 112.3C70.1902 112.611 69.7941 113.07 69.4991 113.677C69.2074 114.283 69.0616 115.027 69.0616 115.909C69.0616 116.791 69.2074 117.535 69.4991 118.141C69.7941 118.748 70.1902 119.207 70.6873 119.518C71.1878 119.83 71.7463 119.986 72.3627 119.986C72.9792 119.986 73.536 119.83 74.0332 119.518C74.5337 119.207 74.9297 118.748 75.2214 118.141C75.5164 117.535 75.6639 116.791 75.6639 115.909ZM82.1717 113.364V114.358H78.0552V113.364H82.1717ZM79.2882 121V112.31C79.2882 111.872 79.3909 111.508 79.5964 111.216C79.8019 110.924 80.0687 110.705 80.3968 110.56C80.725 110.414 81.0713 110.341 81.4359 110.341C81.7243 110.341 81.9596 110.364 82.1419 110.411C82.3242 110.457 82.46 110.5 82.5495 110.54L82.2115 111.554C82.1518 111.534 82.069 111.509 81.9629 111.479C81.8601 111.45 81.7243 111.435 81.5552 111.435C81.1674 111.435 80.8874 111.532 80.715 111.728C80.546 111.924 80.4615 112.21 80.4615 112.588V121H79.2882ZM87.2166 113.364V114.358H83.1001V113.364H87.2166ZM84.3331 121V112.31C84.3331 111.872 84.4358 111.508 84.6413 111.216C84.8468 110.924 85.1136 110.705 85.4418 110.56C85.7699 110.414 86.1162 110.341 86.4808 110.341C86.7692 110.341 87.0045 110.364 87.1868 110.411C87.3691 110.457 87.505 110.5 87.5945 110.54L87.2564 111.554C87.1967 111.534 87.1139 111.509 87.0078 111.479C86.9051 111.45 86.7692 111.435 86.6001 111.435C86.2124 111.435 85.9323 111.532 85.7599 111.728C85.5909 111.924 85.5064 112.21 85.5064 112.588V121H84.3331ZM88.861 121V113.364H90.0343V121H88.861ZM89.4576 112.091C89.2289 112.091 89.0317 112.013 88.8659 111.857C88.7035 111.701 88.6223 111.514 88.6223 111.295C88.6223 111.077 88.7035 110.889 88.8659 110.734C89.0317 110.578 89.2289 110.5 89.4576 110.5C89.6863 110.5 89.8818 110.578 90.0442 110.734C90.2099 110.889 90.2928 111.077 90.2928 111.295C90.2928 111.514 90.2099 111.701 90.0442 111.857C89.8818 112.013 89.6863 112.091 89.4576 112.091ZM95.2855 121.159C94.5696 121.159 93.9531 120.99 93.4361 120.652C92.919 120.314 92.5213 119.848 92.2429 119.255C91.9645 118.662 91.8253 117.984 91.8253 117.222C91.8253 116.446 91.9678 115.762 92.2528 115.168C92.5412 114.572 92.9422 114.106 93.456 113.771C93.973 113.433 94.5762 113.264 95.2656 113.264C95.8026 113.264 96.2865 113.364 96.7173 113.562C97.1482 113.761 97.5012 114.04 97.7763 114.398C98.0514 114.756 98.2221 115.173 98.2884 115.651H97.1151C97.0256 115.303 96.8267 114.994 96.5185 114.726C96.2135 114.454 95.8026 114.318 95.2855 114.318C94.8281 114.318 94.4271 114.437 94.0824 114.676C93.741 114.911 93.4742 115.245 93.282 115.675C93.093 116.103 92.9986 116.605 92.9986 117.182C92.9986 117.772 93.0914 118.286 93.277 118.723C93.4659 119.161 93.7311 119.5 94.0724 119.742C94.4171 119.984 94.8215 120.105 95.2855 120.105C95.5904 120.105 95.8672 120.052 96.1158 119.946C96.3643 119.84 96.5748 119.688 96.7472 119.489C96.9195 119.29 97.0421 119.051 97.1151 118.773H98.2884C98.2221 119.223 98.058 119.629 97.7962 119.991C97.5376 120.349 97.1946 120.634 96.767 120.846C96.3428 121.055 95.849 121.159 95.2855 121.159ZM103.205 121.159C102.469 121.159 101.835 120.997 101.301 120.672C100.771 120.344 100.362 119.886 100.073 119.3C99.7881 118.71 99.6456 118.024 99.6456 117.241C99.6456 116.459 99.7881 115.77 100.073 115.173C100.362 114.573 100.763 114.106 101.276 113.771C101.793 113.433 102.397 113.264 103.086 113.264C103.484 113.264 103.876 113.33 104.264 113.463C104.652 113.596 105.005 113.811 105.323 114.109C105.641 114.404 105.895 114.795 106.084 115.283C106.273 115.77 106.367 116.37 106.367 117.082V117.58H100.481V116.565H105.174C105.174 116.134 105.088 115.75 104.915 115.412C104.746 115.074 104.504 114.807 104.19 114.612C103.878 114.416 103.51 114.318 103.086 114.318C102.619 114.318 102.214 114.434 101.873 114.666C101.535 114.895 101.275 115.193 101.092 115.561C100.91 115.929 100.819 116.323 100.819 116.744V117.42C100.819 117.997 100.918 118.486 101.117 118.887C101.319 119.285 101.599 119.588 101.957 119.797C102.315 120.002 102.731 120.105 103.205 120.105C103.513 120.105 103.792 120.062 104.04 119.976C104.292 119.886 104.509 119.754 104.692 119.578C104.874 119.399 105.015 119.177 105.114 118.912L106.248 119.23C106.129 119.615 105.928 119.953 105.646 120.244C105.365 120.533 105.017 120.758 104.602 120.92C104.188 121.08 103.722 121.159 103.205 121.159Z" fill="#E0E0E0"/>
<path d="M29.8295 153.818L32.4545 158.054H32.5341L35.1591 153.818H36.6108L33.4091 158.909L36.6108 164H35.1591L32.5341 159.844H32.4545L29.8295 164H28.3778L31.6591 158.909L28.3778 153.818H29.8295ZM37.3404 153.818H38.7523L41.5762 158.571H41.6955L44.5194 153.818H45.9313L42.2523 159.804V164H41.0194V159.804L37.3404 153.818ZM47.1879 164V163.105L52.6765 154.912H47.1282V153.818H54.1481V154.713L48.6594 162.906H54.2077V164H47.1879ZM60.2134 164V153.818H63.6538C64.4525 153.818 65.1055 153.962 65.6126 154.251C66.123 154.536 66.5008 154.922 66.7461 155.409C66.9914 155.896 67.114 156.44 67.114 157.04C67.114 157.64 66.9914 158.185 66.7461 158.675C66.5041 159.166 66.1296 159.557 65.6225 159.849C65.1154 160.137 64.4658 160.281 63.6737 160.281H61.2077V159.188H63.6339C64.1808 159.188 64.6199 159.093 64.9513 158.904C65.2828 158.715 65.5231 158.46 65.6722 158.138C65.8247 157.814 65.9009 157.447 65.9009 157.04C65.9009 156.632 65.8247 156.268 65.6722 155.946C65.5231 155.625 65.2811 155.373 64.9464 155.19C64.6116 155.005 64.1675 154.912 63.614 154.912H61.4464V164H60.2134ZM75.1854 156.364L72.3615 164H71.1683L68.3445 156.364H69.6172L71.7251 162.449H71.8047L73.9126 156.364H75.1854ZM80.055 156.364V157.358H76.0977V156.364H80.055ZM77.2511 154.534H78.4244V161.812C78.4244 162.144 78.4724 162.393 78.5685 162.558C78.668 162.721 78.7939 162.83 78.9464 162.886C79.1022 162.939 79.2662 162.966 79.4386 162.966C79.5678 162.966 79.6739 162.959 79.7567 162.946C79.8396 162.929 79.9059 162.916 79.9556 162.906L80.1942 163.96C80.1147 163.99 80.0037 164.02 79.8612 164.05C79.7186 164.083 79.538 164.099 79.3192 164.099C78.9878 164.099 78.663 164.028 78.3448 163.886C78.0299 163.743 77.7681 163.526 77.5593 163.234C77.3538 162.943 77.2511 162.575 77.2511 162.131V154.534ZM82.6751 164.08C82.4298 164.08 82.2193 163.992 82.0437 163.816C81.868 163.64 81.7802 163.43 81.7802 163.185C81.7802 162.939 81.868 162.729 82.0437 162.553C82.2193 162.378 82.4298 162.29 82.6751 162.29C82.9203 162.29 83.1308 162.378 83.3065 162.553C83.4821 162.729 83.57 162.939 83.57 163.185C83.57 163.347 83.5285 163.496 83.4457 163.632C83.3661 163.768 83.2584 163.877 83.1225 163.96C82.9899 164.04 82.8408 164.08 82.6751 164.08ZM89.772 164V153.818H91.005V162.906H95.7379V164H89.772ZM100.494 156.364V157.358H96.5371V156.364H100.494ZM97.6905 154.534H98.8638V161.812C98.8638 162.144 98.9119 162.393 99.008 162.558C99.1074 162.721 99.2334 162.83 99.3858 162.886C99.5416 162.939 99.7057 162.966 99.878 162.966C100.007 162.966 100.113 162.959 100.196 162.946C100.279 162.929 100.345 162.916 100.395 162.906L100.634 163.96C100.554 163.99 100.443 164.02 100.301 164.05C100.158 164.083 99.9775 164.099 99.7587 164.099C99.4273 164.099 99.1025 164.028 98.7843 163.886C98.4694 163.743 98.2076 163.526 97.9988 163.234C97.7933 162.943 97.6905 162.575 97.6905 162.131V154.534ZM105.061 164.159C104.425 164.159 103.863 163.998 103.376 163.677C102.888 163.352 102.507 162.895 102.232 162.305C101.957 161.711 101.819 161.01 101.819 160.202C101.819 159.4 101.957 158.704 102.232 158.114C102.507 157.524 102.89 157.068 103.381 156.746C103.871 156.425 104.438 156.264 105.081 156.264C105.578 156.264 105.971 156.347 106.259 156.513C106.551 156.675 106.773 156.861 106.925 157.07C107.081 157.275 107.202 157.444 107.288 157.577H107.388V153.818H108.561V164H107.427V162.827H107.288C107.202 162.966 107.079 163.142 106.92 163.354C106.761 163.562 106.534 163.75 106.239 163.915C105.944 164.078 105.551 164.159 105.061 164.159ZM105.22 163.105C105.691 163.105 106.088 162.982 106.413 162.737C106.738 162.489 106.985 162.146 107.154 161.708C107.323 161.267 107.407 160.759 107.407 160.182C107.407 159.612 107.325 159.113 107.159 158.685C106.993 158.254 106.748 157.92 106.423 157.681C106.098 157.439 105.697 157.318 105.22 157.318C104.723 157.318 104.309 157.446 103.977 157.701C103.649 157.953 103.402 158.296 103.236 158.73C103.074 159.161 102.993 159.645 102.993 160.182C102.993 160.725 103.076 161.219 103.241 161.663C103.41 162.104 103.659 162.455 103.987 162.717C104.318 162.976 104.729 163.105 105.22 163.105ZM111.728 164.08C111.483 164.08 111.272 163.992 111.096 163.816C110.921 163.64 110.833 163.43 110.833 163.185C110.833 162.939 110.921 162.729 111.096 162.553C111.272 162.378 111.483 162.29 111.728 162.29C111.973 162.29 112.184 162.378 112.359 162.553C112.535 162.729 112.623 162.939 112.623 163.185C112.623 163.347 112.581 163.496 112.498 163.632C112.419 163.768 112.311 163.877 112.175 163.96C112.043 164.04 111.894 164.08 111.728 164.08Z" fill="#E0E0E0"/>
<path d="M29.233 190V179.818H32.6733C33.4688 179.818 34.1217 179.954 34.6321 180.226C35.1425 180.494 35.5204 180.864 35.7656 181.335C36.0109 181.805 36.1335 182.34 36.1335 182.94C36.1335 183.54 36.0109 184.072 35.7656 184.536C35.5204 185 35.1442 185.365 34.6371 185.63C34.13 185.892 33.482 186.023 32.6932 186.023H29.9091V184.909H32.6534C33.197 184.909 33.6345 184.83 33.9659 184.67C34.3007 184.511 34.5426 184.286 34.6918 183.994C34.8442 183.699 34.9205 183.348 34.9205 182.94C34.9205 182.533 34.8442 182.176 34.6918 181.871C34.5393 181.567 34.2957 181.331 33.9609 181.165C33.6262 180.996 33.1837 180.912 32.6335 180.912H30.4659V190H29.233ZM34.0256 185.426L36.5312 190H35.0994L32.6335 185.426H34.0256ZM41.0492 190.159C40.3598 190.159 39.7549 189.995 39.2346 189.667C38.7175 189.339 38.3132 188.88 38.0215 188.29C37.7331 187.7 37.589 187.01 37.589 186.222C37.589 185.426 37.7331 184.732 38.0215 184.138C38.3132 183.545 38.7175 183.085 39.2346 182.756C39.7549 182.428 40.3598 182.264 41.0492 182.264C41.7386 182.264 42.3418 182.428 42.8588 182.756C43.3792 183.085 43.7836 183.545 44.0719 184.138C44.3636 184.732 44.5094 185.426 44.5094 186.222C44.5094 187.01 44.3636 187.7 44.0719 188.29C43.7836 188.88 43.3792 189.339 42.8588 189.667C42.3418 189.995 41.7386 190.159 41.0492 190.159ZM41.0492 189.105C41.5729 189.105 42.0037 188.971 42.3418 188.702C42.6799 188.434 42.9301 188.081 43.0925 187.643C43.2549 187.206 43.3361 186.732 43.3361 186.222C43.3361 185.711 43.2549 185.236 43.0925 184.795C42.9301 184.354 42.6799 183.998 42.3418 183.726C42.0037 183.454 41.5729 183.318 41.0492 183.318C40.5255 183.318 40.0946 183.454 39.7566 183.726C39.4185 183.998 39.1683 184.354 39.0059 184.795C38.8435 185.236 38.7623 185.711 38.7623 186.222C38.7623 186.732 38.8435 187.206 39.0059 187.643C39.1683 188.081 39.4185 188.434 39.7566 188.702C40.0946 188.971 40.5255 189.105 41.0492 189.105ZM48.5476 190.179C48.0637 190.179 47.6245 190.088 47.2301 189.906C46.8357 189.72 46.5225 189.453 46.2905 189.105C46.0585 188.754 45.9425 188.33 45.9425 187.832C45.9425 187.395 46.0286 187.04 46.201 186.768C46.3733 186.493 46.6037 186.278 46.892 186.122C47.1804 185.966 47.4986 185.85 47.8466 185.774C48.1979 185.695 48.5509 185.632 48.9055 185.585C49.3696 185.526 49.7457 185.481 50.0341 185.451C50.3258 185.418 50.5379 185.363 50.6705 185.287C50.8063 185.211 50.8743 185.078 50.8743 184.889V184.849C50.8743 184.359 50.7401 183.978 50.4716 183.706C50.2064 183.434 49.8037 183.298 49.2635 183.298C48.7034 183.298 48.2642 183.421 47.946 183.666C47.6278 183.911 47.4041 184.173 47.2749 184.452L46.1612 184.054C46.3601 183.59 46.6252 183.229 46.9567 182.97C47.2914 182.708 47.656 182.526 48.0504 182.423C48.4482 182.317 48.8393 182.264 49.2237 182.264C49.469 182.264 49.7507 182.294 50.0689 182.354C50.3904 182.41 50.7003 182.528 50.9986 182.707C51.3002 182.886 51.5504 183.156 51.7493 183.517C51.9482 183.878 52.0476 184.362 52.0476 184.969V190H50.8743V188.966H50.8146C50.7351 189.132 50.6025 189.309 50.4169 189.498C50.2313 189.687 49.9844 189.848 49.6761 189.98C49.3679 190.113 48.9917 190.179 48.5476 190.179ZM48.7266 189.125C49.1906 189.125 49.5817 189.034 49.8999 188.852C50.2214 188.669 50.4633 188.434 50.6257 188.146C50.7914 187.857 50.8743 187.554 50.8743 187.236V186.162C50.8246 186.222 50.7152 186.276 50.5462 186.326C50.3804 186.372 50.1882 186.414 49.9695 186.45C49.754 186.483 49.5436 186.513 49.3381 186.54C49.1359 186.563 48.9718 186.583 48.8459 186.599C48.541 186.639 48.2559 186.704 47.9908 186.793C47.7289 186.879 47.5168 187.01 47.3544 187.186C47.1953 187.358 47.1158 187.594 47.1158 187.892C47.1158 188.3 47.2666 188.608 47.5682 188.817C47.8731 189.022 48.2592 189.125 48.7266 189.125ZM57.0726 190.159C56.4363 190.159 55.8745 189.998 55.3873 189.677C54.9 189.352 54.5189 188.895 54.2438 188.305C53.9687 187.711 53.8311 187.01 53.8311 186.202C53.8311 185.4 53.9687 184.704 54.2438 184.114C54.5189 183.524 54.9017 183.068 55.3922 182.746C55.8828 182.425 56.4495 182.264 57.0925 182.264C57.5897 182.264 57.9824 182.347 58.2708 182.513C58.5624 182.675 58.7845 182.861 58.937 183.07C59.0927 183.275 59.2137 183.444 59.2999 183.577H59.3993V179.818H60.5726V190H59.4391V188.827H59.2999C59.2137 188.966 59.0911 189.142 58.932 189.354C58.7729 189.562 58.5459 189.75 58.2509 189.915C57.9559 190.078 57.5632 190.159 57.0726 190.159ZM57.2317 189.105C57.7024 189.105 58.1001 188.982 58.4249 188.737C58.7497 188.489 58.9966 188.146 59.1657 187.708C59.3347 187.267 59.4192 186.759 59.4192 186.182C59.4192 185.612 59.3364 185.113 59.1706 184.685C59.0049 184.254 58.7596 183.92 58.4348 183.681C58.11 183.439 57.709 183.318 57.2317 183.318C56.7346 183.318 56.3203 183.446 55.9888 183.701C55.6607 183.953 55.4138 184.296 55.248 184.73C55.0856 185.161 55.0044 185.645 55.0044 186.182C55.0044 186.725 55.0873 187.219 55.253 187.663C55.4221 188.104 55.6706 188.455 55.9988 188.717C56.3302 188.976 56.7412 189.105 57.2317 189.105ZM70.1429 182.364V183.358H66.1855V182.364H70.1429ZM67.339 180.534H68.5123V187.812C68.5123 188.144 68.5603 188.393 68.6564 188.558C68.7559 188.721 68.8818 188.83 69.0343 188.886C69.19 188.939 69.3541 188.966 69.5265 188.966C69.6557 188.966 69.7618 188.959 69.8446 188.946C69.9275 188.929 69.9938 188.916 70.0435 188.906L70.2821 189.96C70.2026 189.99 70.0916 190.02 69.949 190.05C69.8065 190.083 69.6259 190.099 69.4071 190.099C69.0757 190.099 68.7509 190.028 68.4327 189.886C68.1178 189.743 67.856 189.526 67.6472 189.234C67.4417 188.943 67.339 188.575 67.339 188.131V180.534ZM74.9281 190.159C74.2387 190.159 73.6338 189.995 73.1135 189.667C72.5964 189.339 72.1921 188.88 71.9004 188.29C71.612 187.7 71.4679 187.01 71.4679 186.222C71.4679 185.426 71.612 184.732 71.9004 184.138C72.1921 183.545 72.5964 183.085 73.1135 182.756C73.6338 182.428 74.2387 182.264 74.9281 182.264C75.6175 182.264 76.2207 182.428 76.7377 182.756C77.2581 183.085 77.6625 183.545 77.9508 184.138C78.2425 184.732 78.3883 185.426 78.3883 186.222C78.3883 187.01 78.2425 187.7 77.9508 188.29C77.6625 188.88 77.2581 189.339 76.7377 189.667C76.2207 189.995 75.6175 190.159 74.9281 190.159ZM74.9281 189.105C75.4518 189.105 75.8826 188.971 76.2207 188.702C76.5588 188.434 76.809 188.081 76.9714 187.643C77.1338 187.206 77.215 186.732 77.215 186.222C77.215 185.711 77.1338 185.236 76.9714 184.795C76.809 184.354 76.5588 183.998 76.2207 183.726C75.8826 183.454 75.4518 183.318 74.9281 183.318C74.4044 183.318 73.9735 183.454 73.6355 183.726C73.2974 183.998 73.0472 184.354 72.8848 184.795C72.7224 185.236 72.6412 185.711 72.6412 186.222C72.6412 186.732 72.7224 187.206 72.8848 187.643C73.0472 188.081 73.2974 188.434 73.6355 188.702C73.9735 188.971 74.4044 189.105 74.9281 189.105ZM85.2901 185.406V190H84.1168V182.364H85.2504V183.557H85.3498C85.5288 183.169 85.8005 182.857 86.1651 182.622C86.5297 182.384 87.0004 182.264 87.5771 182.264C88.0941 182.264 88.5465 182.37 88.9343 182.582C89.3221 182.791 89.6237 183.109 89.8391 183.537C90.0546 183.961 90.1623 184.498 90.1623 185.148V190H88.989V185.227C88.989 184.627 88.8332 184.16 88.5217 183.825C88.2101 183.487 87.7826 183.318 87.239 183.318C86.8645 183.318 86.5297 183.399 86.2347 183.562C85.9431 183.724 85.7127 183.961 85.5437 184.273C85.3746 184.584 85.2901 184.962 85.2901 185.406ZM95.4086 190.159C94.7192 190.159 94.1143 189.995 93.5939 189.667C93.0769 189.339 92.6725 188.88 92.3809 188.29C92.0925 187.7 91.9483 187.01 91.9483 186.222C91.9483 185.426 92.0925 184.732 92.3809 184.138C92.6725 183.545 93.0769 183.085 93.5939 182.756C94.1143 182.428 94.7192 182.264 95.4086 182.264C96.098 182.264 96.7012 182.428 97.2182 182.756C97.7386 183.085 98.1429 183.545 98.4313 184.138C98.723 184.732 98.8688 185.426 98.8688 186.222C98.8688 187.01 98.723 187.7 98.4313 188.29C98.1429 188.88 97.7386 189.339 97.2182 189.667C96.7012 189.995 96.098 190.159 95.4086 190.159ZM95.4086 189.105C95.9322 189.105 96.3631 188.971 96.7012 188.702C97.0392 188.434 97.2895 188.081 97.4519 187.643C97.6143 187.206 97.6955 186.732 97.6955 186.222C97.6955 185.711 97.6143 185.236 97.4519 184.795C97.2895 184.354 97.0392 183.998 96.7012 183.726C96.3631 183.454 95.9322 183.318 95.4086 183.318C94.8849 183.318 94.454 183.454 94.1159 183.726C93.7779 183.998 93.5276 184.354 93.3652 184.795C93.2028 185.236 93.1216 185.711 93.1216 186.222C93.1216 186.732 93.2028 187.206 93.3652 187.643C93.5276 188.081 93.7779 188.434 94.1159 188.702C94.454 188.971 94.8849 189.105 95.4086 189.105ZM102.13 190L99.8034 182.364H101.036L102.687 188.21H102.767L104.397 182.364H105.65L107.261 188.19H107.34L108.991 182.364H110.224L107.897 190H106.744L105.073 184.134H104.954L103.284 190H102.13ZM112.948 185.406V190H111.775V179.818H112.948V183.557H113.048C113.227 183.162 113.495 182.849 113.853 182.617C114.214 182.382 114.695 182.264 115.295 182.264C115.815 182.264 116.271 182.369 116.662 182.577C117.053 182.783 117.356 183.099 117.572 183.527C117.791 183.951 117.9 184.491 117.9 185.148V190H116.727V185.227C116.727 184.621 116.569 184.152 116.254 183.82C115.943 183.486 115.51 183.318 114.957 183.318C114.572 183.318 114.228 183.399 113.923 183.562C113.621 183.724 113.383 183.961 113.207 184.273C113.035 184.584 112.948 184.962 112.948 185.406ZM123.248 190.159C122.512 190.159 121.878 189.997 121.344 189.672C120.814 189.344 120.404 188.886 120.116 188.3C119.831 187.71 119.689 187.024 119.689 186.241C119.689 185.459 119.831 184.77 120.116 184.173C120.404 183.573 120.806 183.106 121.319 182.771C121.836 182.433 122.44 182.264 123.129 182.264C123.527 182.264 123.919 182.33 124.307 182.463C124.695 182.596 125.048 182.811 125.366 183.109C125.684 183.404 125.938 183.795 126.127 184.283C126.316 184.77 126.41 185.37 126.41 186.082V186.58H120.524V185.565H125.217C125.217 185.134 125.131 184.75 124.958 184.412C124.789 184.074 124.547 183.807 124.233 183.612C123.921 183.416 123.553 183.318 123.129 183.318C122.662 183.318 122.257 183.434 121.916 183.666C121.578 183.895 121.318 184.193 121.135 184.561C120.953 184.929 120.862 185.323 120.862 185.744V186.42C120.862 186.997 120.961 187.486 121.16 187.887C121.362 188.285 121.642 188.588 122 188.797C122.358 189.002 122.774 189.105 123.248 189.105C123.556 189.105 123.835 189.062 124.083 188.976C124.335 188.886 124.552 188.754 124.735 188.578C124.917 188.399 125.058 188.177 125.157 187.912L126.291 188.23C126.172 188.615 125.971 188.953 125.689 189.244C125.408 189.533 125.06 189.758 124.645 189.92C124.231 190.08 123.765 190.159 123.248 190.159ZM128.195 190V182.364H129.328V183.517H129.408C129.547 183.139 129.799 182.833 130.164 182.597C130.528 182.362 130.939 182.244 131.397 182.244C131.483 182.244 131.591 182.246 131.72 182.249C131.849 182.253 131.947 182.258 132.013 182.264V183.457C131.973 183.447 131.882 183.433 131.74 183.413C131.6 183.389 131.453 183.378 131.297 183.378C130.926 183.378 130.595 183.456 130.303 183.612C130.015 183.764 129.786 183.976 129.617 184.248C129.451 184.516 129.368 184.823 129.368 185.168V190H128.195ZM136.373 190.159C135.637 190.159 135.003 189.997 134.469 189.672C133.939 189.344 133.529 188.886 133.241 188.3C132.956 187.71 132.814 187.024 132.814 186.241C132.814 185.459 132.956 184.77 133.241 184.173C133.529 183.573 133.931 183.106 134.444 182.771C134.961 182.433 135.565 182.264 136.254 182.264C136.652 182.264 137.044 182.33 137.432 182.463C137.82 182.596 138.173 182.811 138.491 183.109C138.809 183.404 139.063 183.795 139.252 184.283C139.441 184.77 139.535 185.37 139.535 186.082V186.58H133.649V185.565H138.342C138.342 185.134 138.256 184.75 138.083 184.412C137.914 184.074 137.672 183.807 137.358 183.612C137.046 183.416 136.678 183.318 136.254 183.318C135.787 183.318 135.382 183.434 135.041 183.666C134.703 183.895 134.443 184.193 134.26 184.561C134.078 184.929 133.987 185.323 133.987 185.744V186.42C133.987 186.997 134.086 187.486 134.285 187.887C134.487 188.285 134.767 188.588 135.125 188.797C135.483 189.002 135.899 189.105 136.373 189.105C136.681 189.105 136.96 189.062 137.208 188.976C137.46 188.886 137.677 188.754 137.86 188.578C138.042 188.399 138.183 188.177 138.282 187.912L139.416 188.23C139.297 188.615 139.096 188.953 138.814 189.244C138.533 189.533 138.185 189.758 137.77 189.92C137.356 190.08 136.89 190.159 136.373 190.159ZM143.07 188.608L142.99 189.145C142.934 189.523 142.848 189.927 142.732 190.358C142.619 190.789 142.502 191.195 142.379 191.576C142.256 191.957 142.155 192.26 142.076 192.486H141.181C141.224 192.274 141.28 191.994 141.35 191.646C141.419 191.298 141.489 190.908 141.559 190.477C141.632 190.05 141.691 189.612 141.738 189.165L141.797 188.608H143.07ZM152.482 190.139C151.733 190.139 151.095 189.935 150.568 189.528C150.041 189.117 149.639 188.522 149.36 187.743C149.082 186.961 148.943 186.016 148.943 184.909C148.943 183.809 149.082 182.869 149.36 182.09C149.642 181.308 150.046 180.711 150.573 180.3C151.104 179.886 151.74 179.679 152.482 179.679C153.225 179.679 153.86 179.886 154.387 180.3C154.917 180.711 155.321 181.308 155.6 182.09C155.881 182.869 156.022 183.809 156.022 184.909C156.022 186.016 155.883 186.961 155.605 187.743C155.326 188.522 154.923 189.117 154.396 189.528C153.869 189.935 153.231 190.139 152.482 190.139ZM152.482 189.045C153.225 189.045 153.802 188.687 154.213 187.972C154.624 187.256 154.829 186.235 154.829 184.909C154.829 184.027 154.735 183.277 154.546 182.657C154.36 182.037 154.092 181.565 153.74 181.24C153.392 180.915 152.973 180.753 152.482 180.753C151.747 180.753 151.172 181.116 150.757 181.842C150.343 182.564 150.136 183.587 150.136 184.909C150.136 185.791 150.229 186.54 150.414 187.156C150.6 187.773 150.867 188.242 151.215 188.563C151.566 188.885 151.989 189.045 152.482 189.045ZM161.292 190.139C160.874 190.133 160.457 190.053 160.039 189.901C159.622 189.748 159.24 189.491 158.896 189.13C158.551 188.765 158.274 188.273 158.066 187.653C157.857 187.03 157.752 186.248 157.752 185.307C157.752 184.405 157.837 183.607 158.006 182.911C158.175 182.211 158.42 181.623 158.742 181.146C159.063 180.665 159.451 180.3 159.905 180.052C160.362 179.803 160.878 179.679 161.451 179.679C162.021 179.679 162.528 179.793 162.972 180.022C163.42 180.247 163.785 180.562 164.066 180.967C164.348 181.371 164.53 181.837 164.613 182.364H163.4C163.287 181.906 163.069 181.527 162.744 181.225C162.419 180.924 161.988 180.773 161.451 180.773C160.662 180.773 160.041 181.116 159.587 181.802C159.136 182.488 158.909 183.451 158.906 184.69H158.985C159.171 184.409 159.391 184.168 159.646 183.969C159.905 183.767 160.19 183.612 160.502 183.502C160.813 183.393 161.143 183.338 161.491 183.338C162.074 183.338 162.608 183.484 163.092 183.776C163.576 184.064 163.963 184.463 164.255 184.974C164.547 185.481 164.693 186.062 164.693 186.719C164.693 187.348 164.552 187.925 164.27 188.449C163.988 188.969 163.592 189.384 163.082 189.692C162.575 189.997 161.978 190.146 161.292 190.139ZM161.292 189.045C161.71 189.045 162.084 188.941 162.416 188.732C162.75 188.523 163.014 188.243 163.206 187.892C163.402 187.541 163.499 187.15 163.499 186.719C163.499 186.298 163.405 185.915 163.216 185.57C163.03 185.222 162.774 184.946 162.445 184.74C162.121 184.535 161.749 184.432 161.332 184.432C161.017 184.432 160.724 184.495 160.452 184.621C160.18 184.743 159.941 184.912 159.736 185.128C159.534 185.343 159.375 185.59 159.259 185.869C159.143 186.144 159.085 186.434 159.085 186.739C159.085 187.143 159.179 187.521 159.368 187.872C159.56 188.223 159.822 188.507 160.154 188.722C160.488 188.938 160.868 189.045 161.292 189.045ZM171.043 184.362V185.456H166.588V184.362H171.043ZM172.849 187.912V186.898L177.323 179.818H178.059V181.389H177.562L174.181 186.739V186.818H180.206V187.912H172.849ZM177.641 190V187.604V187.131V179.818H178.814V190H177.641ZM185.391 190.139C184.642 190.139 184.004 189.935 183.477 189.528C182.95 189.117 182.547 188.522 182.268 187.743C181.99 186.961 181.851 186.016 181.851 184.909C181.851 183.809 181.99 182.869 182.268 182.09C182.55 181.308 182.955 180.711 183.482 180.3C184.012 179.886 184.648 179.679 185.391 179.679C186.133 179.679 186.768 179.886 187.295 180.3C187.825 180.711 188.229 181.308 188.508 182.09C188.79 182.869 188.93 183.809 188.93 184.909C188.93 186.016 188.791 186.961 188.513 187.743C188.234 188.522 187.832 189.117 187.305 189.528C186.778 189.935 186.14 190.139 185.391 190.139ZM185.391 189.045C186.133 189.045 186.71 188.687 187.121 187.972C187.532 187.256 187.737 186.235 187.737 184.909C187.737 184.027 187.643 183.277 187.454 182.657C187.268 182.037 187 181.565 186.648 181.24C186.3 180.915 185.881 180.753 185.391 180.753C184.655 180.753 184.08 181.116 183.665 181.842C183.251 182.564 183.044 183.587 183.044 184.909C183.044 185.791 183.137 186.54 183.322 187.156C183.508 187.773 183.775 188.242 184.123 188.563C184.474 188.885 184.897 189.045 185.391 189.045ZM190.581 187.912V186.898L195.055 179.818H195.791V181.389H195.294L191.913 186.739V186.818H197.939V187.912H190.581ZM195.374 190V187.604V187.131V179.818H196.547V190H195.374ZM201.093 188.608L201.014 189.145C200.958 189.523 200.871 189.927 200.755 190.358C200.643 190.789 200.525 191.195 200.402 191.576C200.28 191.957 200.179 192.26 200.099 192.486H199.204C199.247 192.274 199.304 191.994 199.373 191.646C199.443 191.298 199.512 190.908 199.582 190.477C199.655 190.05 199.715 189.612 199.761 189.165L199.821 188.608H201.093ZM210.367 190.139C209.783 190.139 209.258 190.023 208.791 189.791C208.323 189.559 207.949 189.241 207.667 188.837C207.385 188.432 207.231 187.972 207.205 187.455H208.398C208.444 187.915 208.653 188.296 209.024 188.598C209.399 188.896 209.846 189.045 210.367 189.045C210.784 189.045 211.155 188.948 211.48 188.752C211.808 188.557 212.065 188.288 212.251 187.947C212.44 187.602 212.534 187.213 212.534 186.778C212.534 186.334 212.436 185.938 212.241 185.59C212.049 185.239 211.784 184.962 211.445 184.76C211.107 184.558 210.721 184.455 210.287 184.452C209.976 184.448 209.656 184.496 209.328 184.596C208.999 184.692 208.729 184.816 208.517 184.969L207.364 184.83L207.98 179.818H213.27V180.912H209.014L208.656 183.915H208.716C208.925 183.749 209.187 183.612 209.502 183.502C209.816 183.393 210.145 183.338 210.486 183.338C211.109 183.338 211.664 183.487 212.151 183.786C212.642 184.08 213.026 184.485 213.305 184.999C213.587 185.512 213.727 186.099 213.727 186.759C213.727 187.408 213.582 187.988 213.29 188.499C213.002 189.006 212.604 189.407 212.097 189.702C211.59 189.993 211.013 190.139 210.367 190.139ZM219.023 190.139C218.274 190.139 217.636 189.935 217.109 189.528C216.582 189.117 216.18 188.522 215.901 187.743C215.623 186.961 215.484 186.016 215.484 184.909C215.484 183.809 215.623 182.869 215.901 182.09C216.183 181.308 216.587 180.711 217.114 180.3C217.645 179.886 218.281 179.679 219.023 179.679C219.766 179.679 220.401 179.886 220.928 180.3C221.458 180.711 221.862 181.308 222.141 182.09C222.422 182.869 222.563 183.809 222.563 184.909C222.563 186.016 222.424 186.961 222.146 187.743C221.867 188.522 221.464 189.117 220.938 189.528C220.411 189.935 219.772 190.139 219.023 190.139ZM219.023 189.045C219.766 189.045 220.343 188.687 220.754 187.972C221.165 187.256 221.37 186.235 221.37 184.909C221.37 184.027 221.276 183.277 221.087 182.657C220.901 182.037 220.633 181.565 220.281 181.24C219.933 180.915 219.514 180.753 219.023 180.753C218.288 180.753 217.713 181.116 217.298 181.842C216.884 182.564 216.677 183.587 216.677 184.909C216.677 185.791 216.77 186.54 216.955 187.156C217.141 187.773 217.408 188.242 217.756 188.563C218.107 188.885 218.53 189.045 219.023 189.045ZM227.773 190.139C227.024 190.139 226.386 189.935 225.859 189.528C225.332 189.117 224.93 188.522 224.651 187.743C224.373 186.961 224.234 186.016 224.234 184.909C224.234 183.809 224.373 182.869 224.651 182.09C224.933 181.308 225.337 180.711 225.864 180.3C226.395 179.886 227.031 179.679 227.773 179.679C228.516 179.679 229.151 179.886 229.678 180.3C230.208 180.711 230.612 181.308 230.891 182.09C231.172 182.869 231.313 183.809 231.313 184.909C231.313 186.016 231.174 186.961 230.896 187.743C230.617 188.522 230.214 189.117 229.688 189.528C229.161 189.935 228.522 190.139 227.773 190.139ZM227.773 189.045C228.516 189.045 229.093 188.687 229.504 187.972C229.915 187.256 230.12 186.235 230.12 184.909C230.12 184.027 230.026 183.277 229.837 182.657C229.651 182.037 229.383 181.565 229.031 181.24C228.683 180.915 228.264 180.753 227.773 180.753C227.038 180.753 226.463 181.116 226.048 181.842C225.634 182.564 225.427 183.587 225.427 184.909C225.427 185.791 225.52 186.54 225.705 187.156C225.891 187.773 226.158 188.242 226.506 188.563C226.857 188.885 227.28 189.045 227.773 189.045ZM238.552 179.818V190H237.319V179.818H238.552ZM242.038 185.406V190H240.865V182.364H241.998V183.557H242.098C242.277 183.169 242.549 182.857 242.913 182.622C243.278 182.384 243.748 182.264 244.325 182.264C244.842 182.264 245.295 182.37 245.682 182.582C246.07 182.791 246.372 183.109 246.587 183.537C246.803 183.961 246.91 184.498 246.91 185.148V190H245.737V185.227C245.737 184.627 245.581 184.16 245.27 183.825C244.958 183.487 244.531 183.318 243.987 183.318C243.613 183.318 243.278 183.399 242.983 183.562C242.691 183.724 242.461 183.961 242.292 184.273C242.123 184.584 242.038 184.962 242.038 185.406ZM252.375 182.364V183.358H248.418V182.364H252.375ZM249.571 180.534H250.745V187.812C250.745 188.144 250.793 188.393 250.889 188.558C250.988 188.721 251.114 188.83 251.267 188.886C251.422 188.939 251.587 188.966 251.759 188.966C251.888 188.966 251.994 188.959 252.077 188.946C252.16 188.929 252.226 188.916 252.276 188.906L252.515 189.96C252.435 189.99 252.324 190.02 252.181 190.05C252.039 190.083 251.858 190.099 251.64 190.099C251.308 190.099 250.983 190.028 250.665 189.886C250.35 189.743 250.088 189.526 249.88 189.234C249.674 188.943 249.571 188.575 249.571 188.131V180.534ZM257.26 190.159C256.524 190.159 255.889 189.997 255.356 189.672C254.826 189.344 254.416 188.886 254.128 188.3C253.843 187.71 253.7 187.024 253.7 186.241C253.7 185.459 253.843 184.77 254.128 184.173C254.416 183.573 254.817 183.106 255.331 182.771C255.848 182.433 256.451 182.264 257.141 182.264C257.538 182.264 257.931 182.33 258.319 182.463C258.707 182.596 259.06 182.811 259.378 183.109C259.696 183.404 259.95 183.795 260.138 184.283C260.327 184.77 260.422 185.37 260.422 186.082V186.58H254.536V185.565H259.229C259.229 185.134 259.143 184.75 258.97 184.412C258.801 184.074 258.559 183.807 258.244 183.612C257.933 183.416 257.565 183.318 257.141 183.318C256.673 183.318 256.269 183.434 255.928 183.666C255.589 183.895 255.329 184.193 255.147 184.561C254.965 184.929 254.874 185.323 254.874 185.744V186.42C254.874 186.997 254.973 187.486 255.172 187.887C255.374 188.285 255.654 188.588 256.012 188.797C256.37 189.002 256.786 189.105 257.26 189.105C257.568 189.105 257.847 189.062 258.095 188.976C258.347 188.886 258.564 188.754 258.746 188.578C258.929 188.399 259.07 188.177 259.169 187.912L260.303 188.23C260.183 188.615 259.983 188.953 259.701 189.244C259.419 189.533 259.071 189.758 258.657 189.92C258.243 190.08 257.777 190.159 257.26 190.159ZM262.207 190V182.364H263.34V183.517H263.42C263.559 183.139 263.811 182.833 264.175 182.597C264.54 182.362 264.951 182.244 265.408 182.244C265.495 182.244 265.602 182.246 265.732 182.249C265.861 182.253 265.959 182.258 266.025 182.264V183.457C265.985 183.447 265.894 183.433 265.751 183.413C265.612 183.389 265.465 183.378 265.309 183.378C264.938 183.378 264.606 183.456 264.315 183.612C264.026 183.764 263.798 183.976 263.629 184.248C263.463 184.516 263.38 184.823 263.38 185.168V190H262.207ZM268.589 185.406V190H267.416V182.364H268.549V183.557H268.649C268.828 183.169 269.099 182.857 269.464 182.622C269.829 182.384 270.299 182.264 270.876 182.264C271.393 182.264 271.845 182.37 272.233 182.582C272.621 182.791 272.923 183.109 273.138 183.537C273.353 183.961 273.461 184.498 273.461 185.148V190H272.288V185.227C272.288 184.627 272.132 184.16 271.82 183.825C271.509 183.487 271.081 183.318 270.538 183.318C270.163 183.318 269.829 183.399 269.534 183.562C269.242 183.724 269.012 183.961 268.843 184.273C268.673 184.584 268.589 184.962 268.589 185.406ZM277.852 190.179C277.368 190.179 276.929 190.088 276.535 189.906C276.14 189.72 275.827 189.453 275.595 189.105C275.363 188.754 275.247 188.33 275.247 187.832C275.247 187.395 275.333 187.04 275.506 186.768C275.678 186.493 275.908 186.278 276.197 186.122C276.485 185.966 276.803 185.85 277.151 185.774C277.503 185.695 277.856 185.632 278.21 185.585C278.674 185.526 279.05 185.481 279.339 185.451C279.63 185.418 279.843 185.363 279.975 185.287C280.111 185.211 280.179 185.078 280.179 184.889V184.849C280.179 184.359 280.045 183.978 279.776 183.706C279.511 183.434 279.108 183.298 278.568 183.298C278.008 183.298 277.569 183.421 277.251 183.666C276.933 183.911 276.709 184.173 276.58 184.452L275.466 184.054C275.665 183.59 275.93 183.229 276.261 182.97C276.596 182.708 276.961 182.526 277.355 182.423C277.753 182.317 278.144 182.264 278.528 182.264C278.774 182.264 279.055 182.294 279.374 182.354C279.695 182.41 280.005 182.528 280.303 182.707C280.605 182.886 280.855 183.156 281.054 183.517C281.253 183.878 281.352 184.362 281.352 184.969V190H280.179V188.966H280.119C280.04 189.132 279.907 189.309 279.722 189.498C279.536 189.687 279.289 189.848 278.981 189.98C278.673 190.113 278.296 190.179 277.852 190.179ZM278.031 189.125C278.495 189.125 278.886 189.034 279.205 188.852C279.526 188.669 279.768 188.434 279.93 188.146C280.096 187.857 280.179 187.554 280.179 187.236V186.162C280.129 186.222 280.02 186.276 279.851 186.326C279.685 186.372 279.493 186.414 279.274 186.45C279.059 186.483 278.848 186.513 278.643 186.54C278.441 186.563 278.277 186.583 278.151 186.599C277.846 186.639 277.561 186.704 277.295 186.793C277.034 186.879 276.821 187.01 276.659 187.186C276.5 187.358 276.42 187.594 276.42 187.892C276.42 188.3 276.571 188.608 276.873 188.817C277.178 189.022 277.564 189.125 278.031 189.125ZM284.667 179.818V190H283.494V179.818H284.667ZM29.233 208V197.818H35.3778V198.912H30.4659V202.352H35.0597V203.446H30.4659V206.906H35.4574V208H29.233ZM37.4411 208V200.364H38.5746V201.517H38.6541C38.7933 201.139 39.0452 200.833 39.4098 200.597C39.7744 200.362 40.1854 200.244 40.6428 200.244C40.7289 200.244 40.8366 200.246 40.9659 200.249C41.0952 200.253 41.1929 200.258 41.2592 200.264V201.457C41.2195 201.447 41.1283 201.433 40.9858 201.413C40.8466 201.389 40.6991 201.378 40.5433 201.378C40.1721 201.378 39.8407 201.456 39.549 201.612C39.2607 201.764 39.032 201.976 38.8629 202.248C38.6972 202.516 38.6143 202.823 38.6143 203.168V208H37.4411ZM42.65 208V200.364H43.7836V201.517H43.8631C44.0023 201.139 44.2542 200.833 44.6188 200.597C44.9834 200.362 45.3944 200.244 45.8517 200.244C45.9379 200.244 46.0456 200.246 46.1749 200.249C46.3042 200.253 46.4019 200.258 46.4682 200.264V201.457C46.4284 201.447 46.3373 201.433 46.1948 201.413C46.0556 201.389 45.9081 201.378 45.7523 201.378C45.3811 201.378 45.0497 201.456 44.758 201.612C44.4696 201.764 44.2409 201.976 44.0719 202.248C43.9062 202.516 43.8233 202.823 43.8233 203.168V208H42.65ZM50.7289 208.159C50.0395 208.159 49.4346 207.995 48.9142 207.667C48.3972 207.339 47.9928 206.88 47.7012 206.29C47.4128 205.7 47.2686 205.01 47.2686 204.222C47.2686 203.426 47.4128 202.732 47.7012 202.138C47.9928 201.545 48.3972 201.085 48.9142 200.756C49.4346 200.428 50.0395 200.264 50.7289 200.264C51.4183 200.264 52.0215 200.428 52.5385 200.756C53.0589 201.085 53.4632 201.545 53.7516 202.138C54.0433 202.732 54.1891 203.426 54.1891 204.222C54.1891 205.01 54.0433 205.7 53.7516 206.29C53.4632 206.88 53.0589 207.339 52.5385 207.667C52.0215 207.995 51.4183 208.159 50.7289 208.159ZM50.7289 207.105C51.2525 207.105 51.6834 206.971 52.0215 206.702C52.3596 206.434 52.6098 206.081 52.7722 205.643C52.9346 205.206 53.0158 204.732 53.0158 204.222C53.0158 203.711 52.9346 203.236 52.7722 202.795C52.6098 202.354 52.3596 201.998 52.0215 201.726C51.6834 201.454 51.2525 201.318 50.7289 201.318C50.2052 201.318 49.7743 201.454 49.4363 201.726C49.0982 201.998 48.848 202.354 48.6855 202.795C48.5231 203.236 48.4419 203.711 48.4419 204.222C48.4419 204.732 48.5231 205.206 48.6855 205.643C48.848 206.081 49.0982 206.434 49.4363 206.702C49.7743 206.971 50.2052 207.105 50.7289 207.105ZM55.9801 208V200.364H57.1136V201.517H57.1932C57.3324 201.139 57.5843 200.833 57.9489 200.597C58.3134 200.362 58.7244 200.244 59.1818 200.244C59.268 200.244 59.3757 200.246 59.505 200.249C59.6342 200.253 59.732 200.258 59.7983 200.264V201.457C59.7585 201.447 59.6674 201.433 59.5249 201.413C59.3857 201.389 59.2382 201.378 59.0824 201.378C58.7112 201.378 58.3797 201.456 58.0881 201.612C57.7997 201.764 57.571 201.976 57.402 202.248C57.2363 202.516 57.1534 202.823 57.1534 203.168V208H55.9801Z" fill="#E0E0E0"/>
</g>
<defs>
<filter id="filter0_b_1_442" x="-42" y="-42" width="424" height="320" filterUnits="userSpaceOnUse" color-interpolation-filters="sRGB">
<feFlood flood-opacity="0" result="BackgroundImageFix"/>
<feGaussianBlur in="BackgroundImageFix" stdDeviation="21"/>
<feComposite in2="SourceAlpha" operator="in" result="effect1_backgroundBlur_1_442"/>
<feBlend mode="normal" in="SourceGraphic" in2="effect1_backgroundBlur_1_442" result="shape"/>
</filter>
<filter id="filter1_d_1_442" x="20" y="24" width="69.3333" height="56" filterUnits="userSpaceOnUse" color-interpolation-filters="sRGB">
<feFlood flood-opacity="0" result="BackgroundImageFix"/>
<feColorMatrix in="SourceAlpha" type="matrix" values="0 0 0 0 0 0 0 0 0 0 0 0 0 0 0 0 0 0 127 0" result="hardAlpha"/>
<feMorphology radius="8" operator="erode" in="SourceAlpha" result="effect1_dropShadow_1_442"/>
<feOffset dy="8"/>
<feGaussianBlur stdDeviation="8"/>
<feComposite in2="hardAlpha" operator="out"/>
<feColorMatrix type="matrix" values="0 0 0 0 0.392157 0 0 0 0 0.101961 0 0 0 0 0.678431 0 0 0 0.16 0"/>
<feBlend mode="normal" in2="BackgroundImageFix" result="effect1_dropShadow_1_442"/>
<feBlend mode="normal" in="SourceGraphic" in2="effect1_dropShadow_1_442" result="shape"/>
</filter>
<radialGradient id="paint0_radial_1_442" cx="0" cy="0" r="1" gradientUnits="userSpaceOnUse" gradientTransform="translate(3.05822 7.02148) rotate(33.9027) scale(399.675 592.169)">
<stop stop-color="#090017" stop-opacity="0.4"/>
<stop offset="1" stop-color="white" stop-opacity="0"/>
</radialGradient>
<linearGradient id="paint1_linear_1_442" x1="187.947" y1="0" x2="187.947" y2="236" gradientUnits="userSpaceOnUse">
<stop stop-color="#F8F8F8"/>
<stop offset="1" stop-color="#666666"/>
</linearGradient>
<clipPath id="clip0_1_442">
<rect x="28" y="24" width="53.3333" height="40" rx="8" fill="white"/>
</clipPath>
</defs>
</svg>
