<svg width="340" height="236" viewBox="0 0 340 236" fill="none" xmlns="http://www.w3.org/2000/svg">
<g filter="url(#filter0_b_1_459)">
<path d="M0 12C0 5.37259 5.37258 0 12 0H328C334.627 0 340 5.37258 340 12V224C340 230.627 334.627 236 328 236H12C5.37258 236 0 230.627 0 224V12Z" fill="url(#paint0_radial_1_459)"/>
<path d="M0.5 12C0.5 5.64873 5.64873 0.5 12 0.5H328C334.351 0.5 339.5 5.64873 339.5 12V224C339.5 230.351 334.351 235.5 328 235.5H12C5.64873 235.5 0.5 230.351 0.5 224V12Z" stroke="url(#paint1_linear_1_459)" stroke-opacity="0.2"/>
<g filter="url(#filter1_d_1_459)">
<g clip-path="url(#clip0_1_459)">
<rect x="28" y="24" width="53.3333" height="40" rx="8" fill="white"/>
<path d="M28 24H81.3333V64H28" fill="#EC1B2E"/>
<path d="M56.8584 32.5917C50.2501 32.1667 47.2168 40.825 53.4668 44.025C51.3001 42.1583 51.7501 39.4167 52.6251 37.9917L52.7834 38.0833C51.6334 40.0417 51.8501 42.475 53.7084 44C52.6501 42.975 52.9168 40.75 54.7168 39.925C56.5168 39.1 56.6834 36.65 56.0834 35.8333C55.2668 34.4111 55.5251 33.3306 56.8584 32.5917ZM53.6584 37.6667L53.2668 38.2833L53.1168 37.5667L52.4001 37.375L53.0501 37.0167L53.0001 36.275L53.5418 36.7833L54.2334 36.5083L53.9251 37.1833L54.3918 37.75L53.6584 37.6667Z" fill="white"/>
<path d="M66.0395 43.355C64.4016 36.9388 55.2297 36.7295 54.1177 43.6624C55.2234 41.025 57.97 40.6057 59.5956 40.9975L59.5574 41.1764C57.3395 40.6879 55.0922 41.6459 54.2161 43.8845C54.8639 42.5613 57.0624 42.1273 58.4033 43.5843C59.7441 45.0412 62.1257 44.4426 62.717 43.6196C63.8172 42.4035 64.9247 42.3152 66.0395 43.355ZM60.224 41.8799L59.5165 41.6979L60.1517 41.3338L60.1126 40.593L60.6542 41.1004L61.3441 40.8237L61.0281 41.4959L61.5034 42.0688L60.7661 41.9841L60.3714 42.6031L60.224 41.8799Z" fill="white"/>
<path d="M58.64 55.4127C64.2361 51.8723 61.6008 43.0846 54.6636 44.1694C57.5136 44.406 58.7611 46.8886 58.8908 48.5558L58.7088 48.5747C58.4881 46.3144 56.8825 44.4731 54.4828 44.3317C55.9414 44.5389 57.0335 46.4957 56.0622 48.2211C55.0909 49.9466 56.3961 52.0266 57.3616 52.3347C58.8582 53.0052 59.2844 54.0313 58.64 55.4127ZM58.2458 49.4261L58.2002 48.697L58.7428 49.1886L59.4353 48.9224L59.1201 49.5944L59.5964 50.165L58.8594 50.0721L58.4615 50.7012L58.3142 49.9738L57.6036 49.7897L58.2458 49.4261Z" fill="white"/>
<path d="M44.8858 52.1016C49.9822 56.3297 57.5255 51.1079 54.35 44.8454C55.0057 47.6291 53.0301 49.5826 51.4847 50.2212L51.4104 50.0539C53.4919 49.1456 54.7469 47.0496 54.1398 44.7236C54.3936 46.1749 52.87 47.8182 50.9289 47.4276C48.9877 47.037 47.4128 48.9212 47.4182 49.9345C47.2429 51.5652 46.3988 52.2875 44.8858 52.1016ZM50.4576 49.8767L51.137 49.608L50.8371 50.276L51.3042 50.8523L50.5677 50.7602L50.1723 51.3896L50.0328 50.6599L49.3116 50.4759L49.9578 50.111L49.9134 49.3783L50.4576 49.8767Z" fill="white"/>
<path d="M43.7848 37.9974C41.3385 44.1509 48.6357 49.7114 53.6104 44.7561C51.1656 46.2399 48.6972 44.9647 47.6123 43.6922L47.7484 43.5699C49.2555 45.2688 51.6367 45.8147 53.6613 44.5186C52.3595 45.2084 50.3258 44.2672 50.0974 42.3003C49.869 40.3335 47.5904 39.4179 46.6283 39.7362C45.0233 40.0734 44.0755 39.4938 43.7848 37.9974ZM47.6225 42.609L48.088 43.1721L47.36 43.0933L46.9563 43.7156L46.8164 42.9867L46.0955 42.8051L46.7464 42.447L46.6986 41.7042L47.2453 42.206L47.9284 41.9373L47.6225 42.609Z" fill="white"/>
</g>
</g>
<path d="M29.2912 95V81.9091H31.6626V87.451H37.7287V81.9091H40.1065V95H37.7287V89.4389H31.6626V95H29.2912ZM46.8661 95.1918C45.9073 95.1918 45.0763 94.9808 44.3732 94.5589C43.6701 94.1371 43.1246 93.5469 42.7369 92.7884C42.3533 92.0298 42.1616 91.1435 42.1616 90.1293C42.1616 89.1151 42.3533 88.2266 42.7369 87.4638C43.1246 86.701 43.6701 86.1087 44.3732 85.6868C45.0763 85.2649 45.9073 85.054 46.8661 85.054C47.8249 85.054 48.6559 85.2649 49.359 85.6868C50.0621 86.1087 50.6055 86.701 50.989 87.4638C51.3768 88.2266 51.5707 89.1151 51.5707 90.1293C51.5707 91.1435 51.3768 92.0298 50.989 92.7884C50.6055 93.5469 50.0621 94.1371 49.359 94.5589C48.6559 94.9808 47.8249 95.1918 46.8661 95.1918ZM46.8789 93.3381C47.3988 93.3381 47.8335 93.1953 48.1829 92.9098C48.5323 92.62 48.7923 92.2322 48.9627 91.7464C49.1374 91.2607 49.2248 90.7195 49.2248 90.1229C49.2248 89.522 49.1374 88.9787 48.9627 88.4929C48.7923 88.0028 48.5323 87.6129 48.1829 87.3232C47.8335 87.0334 47.3988 86.8885 46.8789 86.8885C46.3462 86.8885 45.9031 87.0334 45.5494 87.3232C45.1999 87.6129 44.9379 88.0028 44.7631 88.4929C44.5927 88.9787 44.5075 89.522 44.5075 90.1229C44.5075 90.7195 44.5927 91.2607 44.7631 91.7464C44.9379 92.2322 45.1999 92.62 45.5494 92.9098C45.9031 93.1953 46.3462 93.3381 46.8789 93.3381ZM55.8485 89.2472V95H53.5346V85.1818H55.7463V86.8501H55.8613C56.0872 86.3004 56.4473 85.8636 56.9416 85.5398C57.4402 85.2159 58.0559 85.054 58.7889 85.054C59.4664 85.054 60.0566 85.1989 60.5595 85.4886C61.0666 85.7784 61.4586 86.1982 61.7356 86.7479C62.0169 87.2976 62.1554 87.9645 62.1511 88.7486V95H59.8372V89.1065C59.8372 88.4503 59.6667 87.9368 59.3258 87.5661C58.9892 87.1953 58.5225 87.0099 57.926 87.0099C57.5211 87.0099 57.161 87.0994 56.8457 87.2784C56.5346 87.4531 56.2896 87.7067 56.1106 88.0391C55.9359 88.3714 55.8485 88.7741 55.8485 89.2472ZM68.7733 98.8864C67.9423 98.8864 67.2285 98.7734 66.6319 98.5476C66.0353 98.326 65.5559 98.0277 65.1937 97.6527C64.8315 97.2777 64.5801 96.8622 64.4395 96.4062L66.5233 95.9013C66.617 96.093 66.7534 96.2827 66.9324 96.4702C67.1113 96.6619 67.3521 96.8196 67.6547 96.9432C67.9615 97.071 68.3471 97.1349 68.8116 97.1349C69.4679 97.1349 70.0112 96.9751 70.4416 96.6555C70.872 96.3402 71.0872 95.8203 71.0872 95.0959V93.2358H70.9721C70.8528 93.4744 70.6781 93.7195 70.448 93.9709C70.2221 94.2223 69.9217 94.4332 69.5467 94.6037C69.176 94.7741 68.7093 94.8594 68.1468 94.8594C67.3926 94.8594 66.7086 94.6825 66.095 94.3288C65.4856 93.9709 64.9998 93.4382 64.6376 92.7308C64.2797 92.0192 64.1007 91.1286 64.1007 90.0589C64.1007 88.9808 64.2797 88.071 64.6376 87.3295C64.9998 86.5838 65.4877 86.0192 66.1014 85.6357C66.715 85.2479 67.399 85.054 68.1532 85.054C68.7285 85.054 69.2015 85.152 69.5723 85.348C69.9473 85.5398 70.2456 85.772 70.4672 86.0447C70.6887 86.3132 70.8571 86.5668 70.9721 86.8054H71.1V85.1818H73.3819V95.1598C73.3819 95.9993 73.1816 96.6939 72.7811 97.2436C72.3805 97.7933 71.8329 98.2045 71.1383 98.4773C70.4437 98.75 69.6554 98.8864 68.7733 98.8864ZM68.7924 93.044C69.2825 93.044 69.7001 92.9247 70.0453 92.6861C70.3904 92.4474 70.6525 92.1044 70.8315 91.657C71.0105 91.2095 71.1 90.6726 71.1 90.0462C71.1 89.4283 71.0105 88.8871 70.8315 88.4226C70.6568 87.9581 70.3968 87.598 70.0517 87.3423C69.7108 87.0824 69.291 86.9524 68.7924 86.9524C68.2768 86.9524 67.8464 87.0866 67.5012 87.3551C67.1561 87.6236 66.8961 87.9922 66.7214 88.4609C66.5467 88.9254 66.4593 89.4538 66.4593 90.0462C66.4593 90.647 66.5467 91.1733 66.7214 91.625C66.9004 92.0724 67.1625 92.4219 67.5076 92.6733C67.8571 92.9205 68.2853 93.044 68.7924 93.044ZM80.3205 95V81.9091H82.6919V87.924H82.8517L87.959 81.9091H90.8546L85.7921 87.7834L90.8993 95H88.0485L84.1429 89.3878L82.6919 91.1009V95H80.3205ZM95.9618 95.1918C95.003 95.1918 94.1721 94.9808 93.4689 94.5589C92.7658 94.1371 92.2203 93.5469 91.8326 92.7884C91.449 92.0298 91.2573 91.1435 91.2573 90.1293C91.2573 89.1151 91.449 88.2266 91.8326 87.4638C92.2203 86.701 92.7658 86.1087 93.4689 85.6868C94.1721 85.2649 95.003 85.054 95.9618 85.054C96.9206 85.054 97.7516 85.2649 98.4547 85.6868C99.1578 86.1087 99.7012 86.701 100.085 87.4638C100.472 88.2266 100.666 89.1151 100.666 90.1293C100.666 91.1435 100.472 92.0298 100.085 92.7884C99.7012 93.5469 99.1578 94.1371 98.4547 94.5589C97.7516 94.9808 96.9206 95.1918 95.9618 95.1918ZM95.9746 93.3381C96.4945 93.3381 96.9292 93.1953 97.2786 92.9098C97.628 92.62 97.888 92.2322 98.0584 91.7464C98.2331 91.2607 98.3205 90.7195 98.3205 90.1229C98.3205 89.522 98.2331 88.9787 98.0584 88.4929C97.888 88.0028 97.628 87.6129 97.2786 87.3232C96.9292 87.0334 96.4945 86.8885 95.9746 86.8885C95.4419 86.8885 94.9988 87.0334 94.6451 87.3232C94.2956 87.6129 94.0336 88.0028 93.8588 88.4929C93.6884 88.9787 93.6032 89.522 93.6032 90.1229C93.6032 90.7195 93.6884 91.2607 93.8588 91.7464C94.0336 92.2322 94.2956 92.62 94.6451 92.9098C94.9988 93.1953 95.4419 93.3381 95.9746 93.3381ZM104.944 89.2472V95H102.63V85.1818H104.842V86.8501H104.957C105.183 86.3004 105.543 85.8636 106.037 85.5398C106.536 85.2159 107.152 85.054 107.885 85.054C108.562 85.054 109.152 85.1989 109.655 85.4886C110.162 85.7784 110.554 86.1982 110.831 86.7479C111.113 87.2976 111.251 87.9645 111.247 88.7486V95H108.933V89.1065C108.933 88.4503 108.762 87.9368 108.422 87.5661C108.085 87.1953 107.618 87.0099 107.022 87.0099C106.617 87.0099 106.257 87.0994 105.941 87.2784C105.63 87.4531 105.385 87.7067 105.206 88.0391C105.032 88.3714 104.944 88.7741 104.944 89.2472ZM117.869 98.8864C117.038 98.8864 116.324 98.7734 115.728 98.5476C115.131 98.326 114.652 98.0277 114.289 97.6527C113.927 97.2777 113.676 96.8622 113.535 96.4062L115.619 95.9013C115.713 96.093 115.849 96.2827 116.028 96.4702C116.207 96.6619 116.448 96.8196 116.75 96.9432C117.057 97.071 117.443 97.1349 117.907 97.1349C118.564 97.1349 119.107 96.9751 119.537 96.6555C119.968 96.3402 120.183 95.8203 120.183 95.0959V93.2358H120.068C119.949 93.4744 119.774 93.7195 119.544 93.9709C119.318 94.2223 119.017 94.4332 118.642 94.6037C118.272 94.7741 117.805 94.8594 117.243 94.8594C116.488 94.8594 115.804 94.6825 115.191 94.3288C114.581 93.9709 114.096 93.4382 113.733 92.7308C113.375 92.0192 113.196 91.1286 113.196 90.0589C113.196 88.9808 113.375 88.071 113.733 87.3295C114.096 86.5838 114.583 86.0192 115.197 85.6357C115.811 85.2479 116.495 85.054 117.249 85.054C117.824 85.054 118.297 85.152 118.668 85.348C119.043 85.5398 119.341 85.772 119.563 86.0447C119.784 86.3132 119.953 86.5668 120.068 86.8054H120.196V85.1818H122.478V95.1598C122.478 95.9993 122.277 96.6939 121.877 97.2436C121.476 97.7933 120.929 98.2045 120.234 98.4773C119.539 98.75 118.751 98.8864 117.869 98.8864ZM117.888 93.044C118.378 93.044 118.796 92.9247 119.141 92.6861C119.486 92.4474 119.748 92.1044 119.927 91.657C120.106 91.2095 120.196 90.6726 120.196 90.0462C120.196 89.4283 120.106 88.8871 119.927 88.4226C119.752 87.9581 119.493 87.598 119.147 87.3423C118.806 87.0824 118.387 86.9524 117.888 86.9524C117.373 86.9524 116.942 87.0866 116.597 87.3551C116.252 87.6236 115.992 87.9922 115.817 88.4609C115.642 88.9254 115.555 89.4538 115.555 90.0462C115.555 90.647 115.642 91.1733 115.817 91.625C115.996 92.0724 116.258 92.4219 116.603 92.6733C116.953 92.9205 117.381 93.044 117.888 93.044Z" fill="#F9F9F9"/>
<path d="M29.233 121V110.818H32.7926C33.5019 110.818 34.0869 110.941 34.5476 111.186C35.0083 111.428 35.3513 111.754 35.5767 112.165C35.8021 112.573 35.9148 113.026 35.9148 113.523C35.9148 113.96 35.8369 114.321 35.6811 114.607C35.5286 114.892 35.3265 115.117 35.0746 115.283C34.826 115.448 34.5559 115.571 34.2642 115.651V115.75C34.5758 115.77 34.889 115.879 35.2038 116.078C35.5187 116.277 35.7822 116.562 35.9943 116.933C36.2064 117.304 36.3125 117.759 36.3125 118.295C36.3125 118.806 36.1965 119.265 35.9645 119.673C35.7325 120.08 35.3662 120.403 34.8658 120.642C34.3653 120.881 33.714 121 32.9119 121H29.233ZM30.4659 119.906H32.9119C33.7173 119.906 34.2891 119.75 34.6271 119.439C34.9685 119.124 35.1392 118.743 35.1392 118.295C35.1392 117.951 35.0514 117.633 34.8757 117.341C34.7 117.046 34.4498 116.811 34.125 116.635C33.8002 116.456 33.4157 116.366 32.9716 116.366H30.4659V119.906ZM30.4659 115.293H32.7528C33.1241 115.293 33.4588 115.22 33.7571 115.074C34.0587 114.928 34.2973 114.723 34.473 114.457C34.652 114.192 34.7415 113.881 34.7415 113.523C34.7415 113.075 34.5857 112.696 34.2741 112.384C33.9626 112.069 33.4688 111.912 32.7926 111.912H30.4659V115.293ZM38.1793 121V113.364H39.3129V114.517H39.3924C39.5316 114.139 39.7835 113.833 40.1481 113.597C40.5127 113.362 40.9237 113.244 41.381 113.244C41.4672 113.244 41.5749 113.246 41.7042 113.249C41.8335 113.253 41.9312 113.258 41.9975 113.264V114.457C41.9577 114.447 41.8666 114.433 41.7241 114.413C41.5849 114.389 41.4374 114.378 41.2816 114.378C40.9104 114.378 40.579 114.456 40.2873 114.612C39.9989 114.764 39.7702 114.976 39.6012 115.248C39.4355 115.516 39.3526 115.823 39.3526 116.168V121H38.1793ZM45.6355 121.179C45.1516 121.179 44.7124 121.088 44.318 120.906C43.9236 120.72 43.6104 120.453 43.3784 120.105C43.1464 119.754 43.0304 119.33 43.0304 118.832C43.0304 118.395 43.1165 118.04 43.2889 117.768C43.4612 117.493 43.6916 117.278 43.9799 117.122C44.2683 116.966 44.5865 116.85 44.9345 116.774C45.2858 116.695 45.6388 116.632 45.9934 116.585C46.4574 116.526 46.8336 116.481 47.122 116.451C47.4136 116.418 47.6258 116.363 47.7583 116.287C47.8942 116.211 47.9622 116.078 47.9622 115.889V115.849C47.9622 115.359 47.8279 114.978 47.5595 114.706C47.2943 114.434 46.8916 114.298 46.3514 114.298C45.7913 114.298 45.3521 114.421 45.0339 114.666C44.7157 114.911 44.492 115.173 44.3627 115.452L43.2491 115.054C43.448 114.59 43.7131 114.229 44.0446 113.97C44.3793 113.708 44.7439 113.526 45.1383 113.423C45.536 113.317 45.9271 113.264 46.3116 113.264C46.5569 113.264 46.8386 113.294 47.1568 113.354C47.4783 113.41 47.7882 113.528 48.0865 113.707C48.3881 113.886 48.6383 114.156 48.8372 114.517C49.036 114.878 49.1355 115.362 49.1355 115.969V121H47.9622V119.966H47.9025C47.823 120.132 47.6904 120.309 47.5048 120.498C47.3192 120.687 47.0723 120.848 46.764 120.98C46.4558 121.113 46.0796 121.179 45.6355 121.179ZM45.8145 120.125C46.2785 120.125 46.6696 120.034 46.9877 119.852C47.3092 119.669 47.5512 119.434 47.7136 119.146C47.8793 118.857 47.9622 118.554 47.9622 118.236V117.162C47.9125 117.222 47.8031 117.276 47.6341 117.326C47.4683 117.372 47.2761 117.414 47.0574 117.45C46.8419 117.483 46.6315 117.513 46.426 117.54C46.2238 117.563 46.0597 117.583 45.9338 117.599C45.6288 117.639 45.3438 117.704 45.0787 117.793C44.8168 117.879 44.6047 118.01 44.4423 118.186C44.2832 118.358 44.2037 118.594 44.2037 118.892C44.2037 119.3 44.3545 119.608 44.6561 119.817C44.961 120.022 45.3471 120.125 45.8145 120.125ZM52.4503 116.406V121H51.277V113.364H52.4105V114.557H52.5099C52.6889 114.169 52.9607 113.857 53.3253 113.622C53.6899 113.384 54.1605 113.264 54.7372 113.264C55.2543 113.264 55.7067 113.37 56.0945 113.582C56.4822 113.791 56.7839 114.109 56.9993 114.537C57.2147 114.961 57.3224 115.498 57.3224 116.148V121H56.1491V116.227C56.1491 115.627 55.9934 115.16 55.6818 114.825C55.3703 114.487 54.9427 114.318 54.3991 114.318C54.0246 114.318 53.6899 114.399 53.3949 114.562C53.1032 114.724 52.8729 114.961 52.7038 115.273C52.5348 115.584 52.4503 115.962 52.4503 116.406ZM62.5687 121.159C61.8528 121.159 61.2363 120.99 60.7193 120.652C60.2022 120.314 59.8045 119.848 59.5261 119.255C59.2477 118.662 59.1085 117.984 59.1085 117.222C59.1085 116.446 59.251 115.762 59.536 115.168C59.8244 114.572 60.2254 114.106 60.7392 113.771C61.2562 113.433 61.8594 113.264 62.5488 113.264C63.0858 113.264 63.5697 113.364 64.0005 113.562C64.4314 113.761 64.7844 114.04 65.0595 114.398C65.3346 114.756 65.5053 115.173 65.5716 115.651H64.3983C64.3088 115.303 64.1099 114.994 63.8017 114.726C63.4967 114.454 63.0858 114.318 62.5687 114.318C62.1113 114.318 61.7103 114.437 61.3656 114.676C61.0242 114.911 60.7574 115.245 60.5652 115.675C60.3762 116.103 60.2818 116.605 60.2818 117.182C60.2818 117.772 60.3746 118.286 60.5602 118.723C60.7491 119.161 61.0143 119.5 61.3556 119.742C61.7003 119.984 62.1047 120.105 62.5687 120.105C62.8736 120.105 63.1504 120.052 63.399 119.946C63.6475 119.84 63.858 119.688 64.0304 119.489C64.2027 119.29 64.3253 119.051 64.3983 118.773H65.5716C65.5053 119.223 65.3412 119.629 65.0794 119.991C64.8208 120.349 64.4778 120.634 64.0502 120.846C63.626 121.055 63.1322 121.159 62.5687 121.159ZM68.46 116.406V121H67.2868V110.818H68.46V114.557H68.5595C68.7385 114.162 69.0069 113.849 69.3649 113.617C69.7261 113.382 70.2067 113.264 70.8066 113.264C71.327 113.264 71.7827 113.369 72.1738 113.577C72.5649 113.783 72.8682 114.099 73.0836 114.527C73.3024 114.951 73.4118 115.491 73.4118 116.148V121H72.2385V116.227C72.2385 115.621 72.081 115.152 71.7662 114.82C71.4546 114.486 71.0221 114.318 70.4686 114.318C70.0841 114.318 69.7394 114.399 69.4345 114.562C69.1329 114.724 68.8942 114.961 68.7186 115.273C68.5462 115.584 68.46 115.962 68.46 116.406ZM78.7599 121.159C78.0241 121.159 77.3894 120.997 76.8558 120.672C76.3255 120.344 75.9162 119.886 75.6278 119.3C75.3428 118.71 75.2003 118.024 75.2003 117.241C75.2003 116.459 75.3428 115.77 75.6278 115.173C75.9162 114.573 76.3172 114.106 76.831 113.771C77.348 113.433 77.9512 113.264 78.6406 113.264C79.0384 113.264 79.4311 113.33 79.8189 113.463C80.2067 113.596 80.5597 113.811 80.8778 114.109C81.196 114.404 81.4496 114.795 81.6385 115.283C81.8274 115.77 81.9219 116.37 81.9219 117.082V117.58H76.0355V116.565H80.7287C80.7287 116.134 80.6425 115.75 80.4702 115.412C80.3011 115.074 80.0592 114.807 79.7443 114.612C79.4328 114.416 79.0649 114.318 78.6406 114.318C78.1733 114.318 77.7689 114.434 77.4276 114.666C77.0895 114.895 76.8293 115.193 76.647 115.561C76.4647 115.929 76.3736 116.323 76.3736 116.744V117.42C76.3736 117.997 76.473 118.486 76.6719 118.887C76.8741 119.285 77.1541 119.588 77.5121 119.797C77.87 120.002 78.286 120.105 78.7599 120.105C79.0682 120.105 79.3466 120.062 79.5952 119.976C79.8471 119.886 80.0642 119.754 80.2464 119.578C80.4287 119.399 80.5696 119.177 80.669 118.912L81.8026 119.23C81.6832 119.615 81.4827 119.953 81.201 120.244C80.9193 120.533 80.5713 120.758 80.157 120.92C79.7427 121.08 79.277 121.159 78.7599 121.159ZM89.1158 115.074L88.0618 115.372C87.9955 115.196 87.8977 115.026 87.7685 114.86C87.6425 114.691 87.4702 114.552 87.2514 114.442C87.0327 114.333 86.7526 114.278 86.4112 114.278C85.9439 114.278 85.5545 114.386 85.2429 114.602C84.9347 114.814 84.7805 115.084 84.7805 115.412C84.7805 115.704 84.8866 115.934 85.0987 116.103C85.3108 116.272 85.6423 116.413 86.093 116.526L87.2266 116.804C87.9093 116.97 88.4181 117.223 88.7528 117.565C89.0876 117.903 89.255 118.339 89.255 118.872C89.255 119.31 89.129 119.701 88.8771 120.045C88.6286 120.39 88.2805 120.662 87.8331 120.861C87.3857 121.06 86.8653 121.159 86.272 121.159C85.4931 121.159 84.8485 120.99 84.3381 120.652C83.8277 120.314 83.5045 119.82 83.3686 119.17L84.4822 118.892C84.5883 119.303 84.7888 119.611 85.0838 119.817C85.3821 120.022 85.7715 120.125 86.2521 120.125C86.799 120.125 87.2332 120.009 87.5547 119.777C87.8795 119.542 88.0419 119.26 88.0419 118.932C88.0419 118.667 87.9491 118.445 87.7635 118.266C87.5779 118.083 87.2929 117.947 86.9084 117.858L85.6357 117.56C84.9363 117.394 84.4226 117.137 84.0945 116.789C83.7696 116.438 83.6072 115.999 83.6072 115.472C83.6072 115.041 83.7282 114.66 83.9702 114.328C84.2154 113.997 84.5485 113.737 84.9695 113.548C85.3937 113.359 85.8743 113.264 86.4112 113.264C87.1669 113.264 87.7602 113.43 88.1911 113.761C88.6252 114.093 88.9335 114.53 89.1158 115.074Z" fill="#E0E0E0"/>
<path d="M29.8295 153.818L32.4545 158.054H32.5341L35.1591 153.818H36.6108L33.4091 158.909L36.6108 164H35.1591L32.5341 159.844H32.4545L29.8295 164H28.3778L31.6591 158.909L28.3778 153.818H29.8295ZM37.3404 153.818H38.7523L41.5762 158.571H41.6955L44.5194 153.818H45.9313L42.2523 159.804V164H41.0194V159.804L37.3404 153.818ZM47.1879 164V163.105L52.6765 154.912H47.1282V153.818H54.1481V154.713L48.6594 162.906H54.2077V164H47.1879ZM60.2134 164V153.818H63.6538C64.4525 153.818 65.1055 153.962 65.6126 154.251C66.123 154.536 66.5008 154.922 66.7461 155.409C66.9914 155.896 67.114 156.44 67.114 157.04C67.114 157.64 66.9914 158.185 66.7461 158.675C66.5041 159.166 66.1296 159.557 65.6225 159.849C65.1154 160.137 64.4658 160.281 63.6737 160.281H61.2077V159.188H63.6339C64.1808 159.188 64.6199 159.093 64.9513 158.904C65.2828 158.715 65.5231 158.46 65.6722 158.138C65.8247 157.814 65.9009 157.447 65.9009 157.04C65.9009 156.632 65.8247 156.268 65.6722 155.946C65.5231 155.625 65.2811 155.373 64.9464 155.19C64.6116 155.005 64.1675 154.912 63.614 154.912H61.4464V164H60.2134ZM72.2621 156.364V157.358H68.3047V156.364H72.2621ZM69.4581 154.534H70.6314V161.812C70.6314 162.144 70.6795 162.393 70.7756 162.558C70.875 162.721 71.0009 162.83 71.1534 162.886C71.3092 162.939 71.4732 162.966 71.6456 162.966C71.7749 162.966 71.8809 162.959 71.9638 162.946C72.0466 162.929 72.1129 162.916 72.1626 162.906L72.4013 163.96C72.3217 163.99 72.2107 164.02 72.0682 164.05C71.9257 164.083 71.745 164.099 71.5263 164.099C71.1948 164.099 70.87 164.028 70.5518 163.886C70.237 163.743 69.9751 163.526 69.7663 163.234C69.5608 162.943 69.4581 162.575 69.4581 162.131V154.534ZM77.1467 164.159C76.4109 164.159 75.7762 163.997 75.2425 163.672C74.7122 163.344 74.3029 162.886 74.0146 162.3C73.7295 161.71 73.587 161.024 73.587 160.241C73.587 159.459 73.7295 158.77 74.0146 158.173C74.3029 157.573 74.704 157.106 75.2177 156.771C75.7347 156.433 76.3379 156.264 77.0273 156.264C77.4251 156.264 77.8178 156.33 78.2056 156.463C78.5934 156.596 78.9464 156.811 79.2646 157.109C79.5827 157.404 79.8363 157.795 80.0252 158.283C80.2141 158.77 80.3086 159.37 80.3086 160.082V160.58H74.4222V159.565H79.1154C79.1154 159.134 79.0292 158.75 78.8569 158.412C78.6879 158.074 78.4459 157.807 78.131 157.612C77.8195 157.416 77.4516 157.318 77.0273 157.318C76.56 157.318 76.1557 157.434 75.8143 157.666C75.4762 157.895 75.216 158.193 75.0337 158.561C74.8514 158.929 74.7603 159.323 74.7603 159.744V160.42C74.7603 160.997 74.8597 161.486 75.0586 161.887C75.2608 162.285 75.5408 162.588 75.8988 162.797C76.2567 163.002 76.6727 163.105 77.1467 163.105C77.4549 163.105 77.7333 163.062 77.9819 162.976C78.2338 162.886 78.4509 162.754 78.6332 162.578C78.8155 162.399 78.9563 162.177 79.0558 161.912L80.1893 162.23C80.07 162.615 79.8694 162.953 79.5877 163.244C79.306 163.533 78.958 163.758 78.5437 163.92C78.1294 164.08 77.6637 164.159 77.1467 164.159ZM82.9485 164.08C82.7032 164.08 82.4928 163.992 82.3171 163.816C82.1415 163.64 82.0536 163.43 82.0536 163.185C82.0536 162.939 82.1415 162.729 82.3171 162.553C82.4928 162.378 82.7032 162.29 82.9485 162.29C83.1938 162.29 83.4042 162.378 83.5799 162.553C83.7556 162.729 83.8434 162.939 83.8434 163.185C83.8434 163.347 83.802 163.496 83.7191 163.632C83.6396 163.768 83.5318 163.877 83.396 163.96C83.2634 164.04 83.1142 164.08 82.9485 164.08ZM90.0455 164V153.818H91.2784V162.906H96.0114V164H90.0455ZM100.768 156.364V157.358H96.8105V156.364H100.768ZM97.964 154.534H99.1373V161.812C99.1373 162.144 99.1853 162.393 99.2814 162.558C99.3809 162.721 99.5068 162.83 99.6593 162.886C99.815 162.939 99.9791 162.966 100.151 162.966C100.281 162.966 100.387 162.959 100.47 162.946C100.552 162.929 100.619 162.916 100.669 162.906L100.907 163.96C100.828 163.99 100.717 164.02 100.574 164.05C100.432 164.083 100.251 164.099 100.032 164.099C99.7007 164.099 99.3759 164.028 99.0577 163.886C98.7428 163.743 98.481 163.526 98.2722 163.234C98.0667 162.943 97.964 162.575 97.964 162.131V154.534ZM105.334 164.159C104.698 164.159 104.136 163.998 103.649 163.677C103.162 163.352 102.781 162.895 102.506 162.305C102.23 161.711 102.093 161.01 102.093 160.202C102.093 159.4 102.23 158.704 102.506 158.114C102.781 157.524 103.163 157.068 103.654 156.746C104.144 156.425 104.711 156.264 105.354 156.264C105.851 156.264 106.244 156.347 106.532 156.513C106.824 156.675 107.046 156.861 107.199 157.07C107.354 157.275 107.475 157.444 107.562 157.577H107.661V153.818H108.834V164H107.701V162.827H107.562C107.475 162.966 107.353 163.142 107.194 163.354C107.035 163.562 106.808 163.75 106.513 163.915C106.218 164.078 105.825 164.159 105.334 164.159ZM105.493 163.105C105.964 163.105 106.362 162.982 106.687 162.737C107.011 162.489 107.258 162.146 107.427 161.708C107.596 161.267 107.681 160.759 107.681 160.182C107.681 159.612 107.598 159.113 107.432 158.685C107.267 158.254 107.021 157.92 106.697 157.681C106.372 157.439 105.971 157.318 105.493 157.318C104.996 157.318 104.582 157.446 104.251 157.701C103.922 157.953 103.675 158.296 103.51 158.73C103.347 159.161 103.266 159.645 103.266 160.182C103.266 160.725 103.349 161.219 103.515 161.663C103.684 162.104 103.932 162.455 104.26 162.717C104.592 162.976 105.003 163.105 105.493 163.105ZM112.001 164.08C111.756 164.08 111.546 163.992 111.37 163.816C111.194 163.64 111.106 163.43 111.106 163.185C111.106 162.939 111.194 162.729 111.37 162.553C111.546 162.378 111.756 162.29 112.001 162.29C112.247 162.29 112.457 162.378 112.633 162.553C112.808 162.729 112.896 162.939 112.896 163.185C112.896 163.347 112.855 163.496 112.772 163.632C112.692 163.768 112.585 163.877 112.449 163.96C112.316 164.04 112.167 164.08 112.001 164.08Z" fill="#E0E0E0"/>
<path d="M28.6761 180.912V179.818H36.3125V180.912H33.1108V190H31.8778V180.912H28.6761ZM39.2296 185.406V190H38.0563V179.818H39.2296V183.557H39.329C39.508 183.162 39.7765 182.849 40.1344 182.617C40.4957 182.382 40.9763 182.264 41.5762 182.264C42.0965 182.264 42.5523 182.369 42.9434 182.577C43.3345 182.783 43.6377 183.099 43.8532 183.527C44.0719 183.951 44.1813 184.491 44.1813 185.148V190H43.008V185.227C43.008 184.621 42.8506 184.152 42.5357 183.82C42.2241 183.486 41.7916 183.318 41.2381 183.318C40.8536 183.318 40.5089 183.399 40.204 183.562C39.9024 183.724 39.6638 183.961 39.4881 184.273C39.3158 184.584 39.2296 184.962 39.2296 185.406ZM49.5295 190.159C48.7937 190.159 48.159 189.997 47.6254 189.672C47.0951 189.344 46.6857 188.886 46.3974 188.3C46.1123 187.71 45.9698 187.024 45.9698 186.241C45.9698 185.459 46.1123 184.77 46.3974 184.173C46.6857 183.573 47.0868 183.106 47.6005 182.771C48.1175 182.433 48.7208 182.264 49.4102 182.264C49.8079 182.264 50.2006 182.33 50.5884 182.463C50.9762 182.596 51.3292 182.811 51.6474 183.109C51.9656 183.404 52.2191 183.795 52.408 184.283C52.5969 184.77 52.6914 185.37 52.6914 186.082V186.58H46.805V185.565H51.4982C51.4982 185.134 51.4121 184.75 51.2397 184.412C51.0707 184.074 50.8287 183.807 50.5138 183.612C50.2023 183.416 49.8344 183.318 49.4102 183.318C48.9428 183.318 48.5385 183.434 48.1971 183.666C47.859 183.895 47.5988 184.193 47.4165 184.561C47.2343 184.929 47.1431 185.323 47.1431 185.744V186.42C47.1431 186.997 47.2425 187.486 47.4414 187.887C47.6436 188.285 47.9237 188.588 48.2816 188.797C48.6396 189.002 49.0555 189.105 49.5295 189.105C49.8377 189.105 50.1161 189.062 50.3647 188.976C50.6166 188.886 50.8337 188.754 51.016 188.578C51.1983 188.399 51.3391 188.177 51.4386 187.912L52.5721 188.23C52.4528 188.615 52.2522 188.953 51.9705 189.244C51.6888 189.533 51.3408 189.758 50.9265 189.92C50.5122 190.08 50.0465 190.159 49.5295 190.159ZM59.8058 179.818V190H58.5728V179.818H59.8058ZM63.2921 185.406V190H62.1188V182.364H63.2523V183.557H63.3517C63.5307 183.169 63.8025 182.857 64.1671 182.622C64.5317 182.384 65.0023 182.264 65.579 182.264C66.0961 182.264 66.5485 182.37 66.9363 182.582C67.324 182.791 67.6257 183.109 67.8411 183.537C68.0565 183.961 68.1642 184.498 68.1642 185.148V190H66.9909V185.227C66.9909 184.627 66.8352 184.16 66.5236 183.825C66.2121 183.487 65.7845 183.318 65.2409 183.318C64.8664 183.318 64.5317 183.399 64.2367 183.562C63.945 183.724 63.7147 183.961 63.5456 184.273C63.3766 184.584 63.2921 184.962 63.2921 185.406ZM73.7088 182.364V183.358H69.5923V182.364H73.7088ZM70.8253 190V181.31C70.8253 180.872 70.928 180.508 71.1335 180.216C71.339 179.924 71.6058 179.705 71.9339 179.56C72.2621 179.414 72.6084 179.341 72.973 179.341C73.2614 179.341 73.4967 179.364 73.679 179.411C73.8613 179.457 73.9972 179.5 74.0866 179.54L73.7486 180.554C73.6889 180.534 73.6061 180.509 73.5 180.479C73.3973 180.45 73.2614 180.435 73.0923 180.435C72.7045 180.435 72.4245 180.532 72.2521 180.728C72.0831 180.924 71.9986 181.21 71.9986 181.588V190H70.8253ZM75.3532 190V182.364H76.5265V190H75.3532ZM75.9498 181.091C75.7211 181.091 75.5239 181.013 75.3581 180.857C75.1957 180.701 75.1145 180.514 75.1145 180.295C75.1145 180.077 75.1957 179.889 75.3581 179.734C75.5239 179.578 75.7211 179.5 75.9498 179.5C76.1784 179.5 76.374 179.578 76.5364 179.734C76.7021 179.889 76.785 180.077 76.785 180.295C76.785 180.514 76.7021 180.701 76.5364 180.857C76.374 181.013 76.1784 181.091 75.9498 181.091ZM79.8487 185.406V190H78.6754V182.364H79.8089V183.557H79.9084C80.0874 183.169 80.3591 182.857 80.7237 182.622C81.0883 182.384 81.5589 182.264 82.1357 182.264C82.6527 182.264 83.1051 182.37 83.4929 182.582C83.8807 182.791 84.1823 183.109 84.3977 183.537C84.6132 183.961 84.7209 184.498 84.7209 185.148V190H83.5476V185.227C83.5476 184.627 83.3918 184.16 83.0803 183.825C82.7687 183.487 82.3411 183.318 81.7976 183.318C81.4231 183.318 81.0883 183.399 80.7933 183.562C80.5017 183.724 80.2713 183.961 80.1023 184.273C79.9332 184.584 79.8487 184.962 79.8487 185.406ZM86.8649 190V182.364H88.0382V190H86.8649ZM87.4615 181.091C87.2328 181.091 87.0356 181.013 86.8699 180.857C86.7074 180.701 86.6262 180.514 86.6262 180.295C86.6262 180.077 86.7074 179.889 86.8699 179.734C87.0356 179.578 87.2328 179.5 87.4615 179.5C87.6902 179.5 87.8857 179.578 88.0481 179.734C88.2138 179.889 88.2967 180.077 88.2967 180.295C88.2967 180.514 88.2138 180.701 88.0481 180.857C87.8857 181.013 87.6902 181.091 87.4615 181.091ZM93.5082 182.364V183.358H89.5508V182.364H93.5082ZM90.7042 180.534H91.8775V187.812C91.8775 188.144 91.9255 188.393 92.0217 188.558C92.1211 188.721 92.247 188.83 92.3995 188.886C92.5553 188.939 92.7193 188.966 92.8917 188.966C93.021 188.966 93.127 188.959 93.2099 188.946C93.2927 188.929 93.359 188.916 93.4087 188.906L93.6474 189.96C93.5678 189.99 93.4568 190.02 93.3143 190.05C93.1718 190.083 92.9911 190.099 92.7724 190.099C92.4409 190.099 92.1161 190.028 91.7979 189.886C91.4831 189.743 91.2212 189.526 91.0124 189.234C90.8069 188.943 90.7042 188.575 90.7042 188.131V180.534ZM98.3928 190.159C97.657 190.159 97.0223 189.997 96.4886 189.672C95.9583 189.344 95.549 188.886 95.2607 188.3C94.9756 187.71 94.8331 187.024 94.8331 186.241C94.8331 185.459 94.9756 184.77 95.2607 184.173C95.549 183.573 95.95 183.106 96.4638 182.771C96.9808 182.433 97.584 182.264 98.2734 182.264C98.6712 182.264 99.0639 182.33 99.4517 182.463C99.8395 182.596 100.192 182.811 100.511 183.109C100.829 183.404 101.082 183.795 101.271 184.283C101.46 184.77 101.555 185.37 101.555 186.082V186.58H95.6683V185.565H100.362C100.362 185.134 100.275 184.75 100.103 184.412C99.9339 184.074 99.692 183.807 99.3771 183.612C99.0656 183.416 98.6977 183.318 98.2734 183.318C97.8061 183.318 97.4018 183.434 97.0604 183.666C96.7223 183.895 96.4621 184.193 96.2798 184.561C96.0975 184.929 96.0064 185.323 96.0064 185.744V186.42C96.0064 186.997 96.1058 187.486 96.3047 187.887C96.5069 188.285 96.7869 188.588 97.1449 188.797C97.5028 189.002 97.9188 189.105 98.3928 189.105C98.701 189.105 98.9794 189.062 99.228 188.976C99.4799 188.886 99.697 188.754 99.8793 188.578C100.062 188.399 100.202 188.177 100.302 187.912L101.435 188.23C101.316 188.615 101.116 188.953 100.834 189.244C100.552 189.533 100.204 189.758 99.7898 189.92C99.3755 190.08 98.9098 190.159 98.3928 190.159ZM107.436 190V179.818H108.669V188.906H113.402V190H107.436ZM118.254 190.159C117.565 190.159 116.96 189.995 116.44 189.667C115.923 189.339 115.518 188.88 115.227 188.29C114.938 187.7 114.794 187.01 114.794 186.222C114.794 185.426 114.938 184.732 115.227 184.138C115.518 183.545 115.923 183.085 116.44 182.756C116.96 182.428 117.565 182.264 118.254 182.264C118.944 182.264 119.547 182.428 120.064 182.756C120.584 183.085 120.989 183.545 121.277 184.138C121.569 184.732 121.714 185.426 121.714 186.222C121.714 187.01 121.569 187.7 121.277 188.29C120.989 188.88 120.584 189.339 120.064 189.667C119.547 189.995 118.944 190.159 118.254 190.159ZM118.254 189.105C118.778 189.105 119.209 188.971 119.547 188.702C119.885 188.434 120.135 188.081 120.298 187.643C120.46 187.206 120.541 186.732 120.541 186.222C120.541 185.711 120.46 185.236 120.298 184.795C120.135 184.354 119.885 183.998 119.547 183.726C119.209 183.454 118.778 183.318 118.254 183.318C117.731 183.318 117.3 183.454 116.962 183.726C116.624 183.998 116.373 184.354 116.211 184.795C116.049 185.236 115.967 185.711 115.967 186.222C115.967 186.732 116.049 187.206 116.211 187.643C116.373 188.081 116.624 188.434 116.962 188.702C117.3 188.971 117.731 189.105 118.254 189.105ZM126.608 190.159C125.918 190.159 125.314 189.995 124.793 189.667C124.276 189.339 123.872 188.88 123.58 188.29C123.292 187.7 123.148 187.01 123.148 186.222C123.148 185.426 123.292 184.732 123.58 184.138C123.872 183.545 124.276 183.085 124.793 182.756C125.314 182.428 125.918 182.264 126.608 182.264C127.297 182.264 127.9 182.428 128.417 182.756C128.938 183.085 129.342 183.545 129.631 184.138C129.922 184.732 130.068 185.426 130.068 186.222C130.068 187.01 129.922 187.7 129.631 188.29C129.342 188.88 128.938 189.339 128.417 189.667C127.9 189.995 127.297 190.159 126.608 190.159ZM126.608 189.105C127.131 189.105 127.562 188.971 127.9 188.702C128.238 188.434 128.489 188.081 128.651 187.643C128.814 187.206 128.895 186.732 128.895 186.222C128.895 185.711 128.814 185.236 128.651 184.795C128.489 184.354 128.238 183.998 127.9 183.726C127.562 183.454 127.131 183.318 126.608 183.318C126.084 183.318 125.653 183.454 125.315 183.726C124.977 183.998 124.727 184.354 124.564 184.795C124.402 185.236 124.321 185.711 124.321 186.222C124.321 186.732 124.402 187.206 124.564 187.643C124.727 188.081 124.977 188.434 125.315 188.702C125.653 188.971 126.084 189.105 126.608 189.105ZM131.859 192.864V182.364H132.993V183.577H133.132C133.218 183.444 133.337 183.275 133.49 183.07C133.645 182.861 133.868 182.675 134.156 182.513C134.448 182.347 134.842 182.264 135.339 182.264C135.982 182.264 136.549 182.425 137.039 182.746C137.53 183.068 137.913 183.524 138.188 184.114C138.463 184.704 138.6 185.4 138.6 186.202C138.6 187.01 138.463 187.711 138.188 188.305C137.913 188.895 137.532 189.352 137.044 189.677C136.557 189.998 135.995 190.159 135.359 190.159C134.868 190.159 134.476 190.078 134.181 189.915C133.886 189.75 133.659 189.562 133.5 189.354C133.341 189.142 133.218 188.966 133.132 188.827H133.032V192.864H131.859ZM133.012 186.182C133.012 186.759 133.097 187.267 133.266 187.708C133.435 188.146 133.682 188.489 134.007 188.737C134.332 188.982 134.729 189.105 135.2 189.105C135.69 189.105 136.1 188.976 136.428 188.717C136.759 188.455 137.008 188.104 137.174 187.663C137.343 187.219 137.427 186.725 137.427 186.182C137.427 185.645 137.344 185.161 137.179 184.73C137.016 184.296 136.769 183.953 136.438 183.701C136.11 183.446 135.697 183.318 135.2 183.318C134.723 183.318 134.322 183.439 133.997 183.681C133.672 183.92 133.427 184.254 133.261 184.685C133.095 185.113 133.012 185.612 133.012 186.182ZM153.078 184.909C153.078 185.983 152.884 186.911 152.496 187.693C152.108 188.475 151.576 189.079 150.9 189.503C150.224 189.927 149.452 190.139 148.583 190.139C147.715 190.139 146.943 189.927 146.267 189.503C145.591 189.079 145.059 188.475 144.671 187.693C144.283 186.911 144.089 185.983 144.089 184.909C144.089 183.835 144.283 182.907 144.671 182.125C145.059 181.343 145.591 180.74 146.267 180.315C146.943 179.891 147.715 179.679 148.583 179.679C149.452 179.679 150.224 179.891 150.9 180.315C151.576 180.74 152.108 181.343 152.496 182.125C152.884 182.907 153.078 183.835 153.078 184.909ZM151.885 184.909C151.885 184.027 151.737 183.283 151.442 182.677C151.15 182.07 150.754 181.611 150.254 181.3C149.757 180.988 149.2 180.832 148.583 180.832C147.967 180.832 147.408 180.988 146.908 181.3C146.411 181.611 146.015 182.07 145.72 182.677C145.428 183.283 145.282 184.027 145.282 184.909C145.282 185.791 145.428 186.535 145.72 187.141C146.015 187.748 146.411 188.207 146.908 188.518C147.408 188.83 147.967 188.986 148.583 188.986C149.2 188.986 149.757 188.83 150.254 188.518C150.754 188.207 151.15 187.748 151.442 187.141C151.737 186.535 151.885 185.791 151.885 184.909ZM158.392 182.364V183.358H154.276V182.364H158.392ZM155.509 190V181.31C155.509 180.872 155.612 180.508 155.817 180.216C156.023 179.924 156.289 179.705 156.618 179.56C156.946 179.414 157.292 179.341 157.657 179.341C157.945 179.341 158.18 179.364 158.363 179.411C158.545 179.457 158.681 179.5 158.77 179.54L158.432 180.554C158.373 180.534 158.29 180.509 158.184 180.479C158.081 180.45 157.945 180.435 157.776 180.435C157.388 180.435 157.108 180.532 156.936 180.728C156.767 180.924 156.682 181.21 156.682 181.588V190H155.509ZM163.437 182.364V183.358H159.321V182.364H163.437ZM160.554 190V181.31C160.554 180.872 160.657 180.508 160.862 180.216C161.068 179.924 161.334 179.705 161.662 179.56C161.991 179.414 162.337 179.341 162.702 179.341C162.99 179.341 163.225 179.364 163.407 179.411C163.59 179.457 163.726 179.5 163.815 179.54L163.477 180.554C163.417 180.534 163.335 180.509 163.229 180.479C163.126 180.45 162.99 180.435 162.821 180.435C162.433 180.435 162.153 180.532 161.981 180.728C161.812 180.924 161.727 181.21 161.727 181.588V190H160.554ZM165.082 190V182.364H166.255V190H165.082ZM165.678 181.091C165.45 181.091 165.252 181.013 165.087 180.857C164.924 180.701 164.843 180.514 164.843 180.295C164.843 180.077 164.924 179.889 165.087 179.734C165.252 179.578 165.45 179.5 165.678 179.5C165.907 179.5 166.103 179.578 166.265 179.734C166.431 179.889 166.513 180.077 166.513 180.295C166.513 180.514 166.431 180.701 166.265 180.857C166.103 181.013 165.907 181.091 165.678 181.091ZM171.506 190.159C170.79 190.159 170.174 189.99 169.657 189.652C169.14 189.314 168.742 188.848 168.464 188.255C168.185 187.662 168.046 186.984 168.046 186.222C168.046 185.446 168.189 184.762 168.474 184.168C168.762 183.572 169.163 183.106 169.677 182.771C170.194 182.433 170.797 182.264 171.486 182.264C172.023 182.264 172.507 182.364 172.938 182.562C173.369 182.761 173.722 183.04 173.997 183.398C174.272 183.756 174.443 184.173 174.509 184.651H173.336C173.246 184.303 173.047 183.994 172.739 183.726C172.434 183.454 172.023 183.318 171.506 183.318C171.049 183.318 170.648 183.437 170.303 183.676C169.962 183.911 169.695 184.245 169.503 184.675C169.314 185.103 169.219 185.605 169.219 186.182C169.219 186.772 169.312 187.286 169.498 187.723C169.687 188.161 169.952 188.5 170.293 188.742C170.638 188.984 171.042 189.105 171.506 189.105C171.811 189.105 172.088 189.052 172.336 188.946C172.585 188.84 172.796 188.688 172.968 188.489C173.14 188.29 173.263 188.051 173.336 187.773H174.509C174.443 188.223 174.279 188.629 174.017 188.991C173.758 189.349 173.415 189.634 172.988 189.846C172.564 190.055 172.07 190.159 171.506 190.159ZM179.426 190.159C178.69 190.159 178.055 189.997 177.522 189.672C176.992 189.344 176.582 188.886 176.294 188.3C176.009 187.71 175.866 187.024 175.866 186.241C175.866 185.459 176.009 184.77 176.294 184.173C176.582 183.573 176.983 183.106 177.497 182.771C178.014 182.433 178.617 182.264 179.307 182.264C179.704 182.264 180.097 182.33 180.485 182.463C180.873 182.596 181.226 182.811 181.544 183.109C181.862 183.404 182.116 183.795 182.305 184.283C182.493 184.77 182.588 185.37 182.588 186.082V186.58H176.702V185.565H181.395C181.395 185.134 181.309 184.75 181.136 184.412C180.967 184.074 180.725 183.807 180.41 183.612C180.099 183.416 179.731 183.318 179.307 183.318C178.839 183.318 178.435 183.434 178.094 183.666C177.756 183.895 177.495 184.193 177.313 184.561C177.131 184.929 177.04 185.323 177.04 185.744V186.42C177.04 186.997 177.139 187.486 177.338 187.887C177.54 188.285 177.82 188.588 178.178 188.797C178.536 189.002 178.952 189.105 179.426 189.105C179.734 189.105 180.013 189.062 180.261 188.976C180.513 188.886 180.73 188.754 180.912 188.578C181.095 188.399 181.236 188.177 181.335 187.912L182.469 188.23C182.349 188.615 182.149 188.953 181.867 189.244C181.585 189.533 181.237 189.758 180.823 189.92C180.409 190.08 179.943 190.159 179.426 190.159ZM186.123 188.608L186.043 189.145C185.987 189.523 185.901 189.927 185.785 190.358C185.672 190.789 185.554 191.195 185.432 191.576C185.309 191.957 185.208 192.26 185.128 192.486H184.233C184.277 192.274 184.333 191.994 184.403 191.646C184.472 191.298 184.542 190.908 184.611 190.477C184.684 190.05 184.744 189.612 184.79 189.165L184.85 188.608H186.123ZM191.975 187.912V186.898L196.45 179.818H197.186V181.389H196.689L193.308 186.739V186.818H199.333V187.912H191.975ZM196.768 190V187.604V187.131V179.818H197.941V190H196.768ZM204.518 190.139C203.769 190.139 203.131 189.935 202.604 189.528C202.077 189.117 201.674 188.522 201.395 187.743C201.117 186.961 200.978 186.016 200.978 184.909C200.978 183.809 201.117 182.869 201.395 182.09C201.677 181.308 202.081 180.711 202.608 180.3C203.139 179.886 203.775 179.679 204.518 179.679C205.26 179.679 205.895 179.886 206.422 180.3C206.952 180.711 207.356 181.308 207.635 182.09C207.916 182.869 208.057 183.809 208.057 184.909C208.057 186.016 207.918 186.961 207.64 187.743C207.361 188.522 206.959 189.117 206.432 189.528C205.905 189.935 205.267 190.139 204.518 190.139ZM204.518 189.045C205.26 189.045 205.837 188.687 206.248 187.972C206.659 187.256 206.864 186.235 206.864 184.909C206.864 184.027 206.77 183.277 206.581 182.657C206.395 182.037 206.127 181.565 205.775 181.24C205.427 180.915 205.008 180.753 204.518 180.753C203.782 180.753 203.207 181.116 202.792 181.842C202.378 182.564 202.171 183.587 202.171 184.909C202.171 185.791 202.264 186.54 202.449 187.156C202.635 187.773 202.902 188.242 203.25 188.563C203.601 188.885 204.024 189.045 204.518 189.045ZM209.708 187.912V186.898L214.182 179.818H214.918V181.389H214.421L211.04 186.739V186.818H217.066V187.912H209.708ZM214.501 190V187.604V187.131V179.818H215.674V190H214.501ZM222.489 180.912V179.818H230.125V180.912H226.923V190H225.69V180.912H222.489ZM231.869 190V182.364H233.042V190H231.869ZM232.465 181.091C232.237 181.091 232.039 181.013 231.874 180.857C231.711 180.701 231.63 180.514 231.63 180.295C231.63 180.077 231.711 179.889 231.874 179.734C232.039 179.578 232.237 179.5 232.465 179.5C232.694 179.5 232.89 179.578 233.052 179.734C233.218 179.889 233.301 180.077 233.301 180.295C233.301 180.514 233.218 180.701 233.052 180.857C232.89 181.013 232.694 181.091 232.465 181.091ZM235.191 190V182.364H236.325V183.557H236.424C236.583 183.149 236.84 182.833 237.195 182.607C237.549 182.379 237.975 182.264 238.472 182.264C238.976 182.264 239.395 182.379 239.73 182.607C240.068 182.833 240.332 183.149 240.521 183.557H240.6C240.796 183.162 241.089 182.849 241.48 182.617C241.871 182.382 242.34 182.264 242.887 182.264C243.57 182.264 244.128 182.478 244.562 182.906C244.997 183.33 245.214 183.991 245.214 184.889V190H244.04V184.889C244.04 184.326 243.886 183.923 243.578 183.681C243.27 183.439 242.907 183.318 242.489 183.318C241.952 183.318 241.536 183.481 241.241 183.805C240.946 184.127 240.799 184.535 240.799 185.028V190H239.606V184.77C239.606 184.336 239.465 183.986 239.183 183.721C238.902 183.452 238.539 183.318 238.094 183.318C237.79 183.318 237.504 183.399 237.239 183.562C236.978 183.724 236.765 183.95 236.603 184.238C236.444 184.523 236.364 184.853 236.364 185.227V190H235.191ZM250.561 190.159C249.825 190.159 249.19 189.997 248.657 189.672C248.126 189.344 247.717 188.886 247.429 188.3C247.144 187.71 247.001 187.024 247.001 186.241C247.001 185.459 247.144 184.77 247.429 184.173C247.717 183.573 248.118 183.106 248.632 182.771C249.149 182.433 249.752 182.264 250.441 182.264C250.839 182.264 251.232 182.33 251.62 182.463C252.007 182.596 252.36 182.811 252.679 183.109C252.997 183.404 253.25 183.795 253.439 184.283C253.628 184.77 253.723 185.37 253.723 186.082V186.58H247.836V185.565H252.529C252.529 185.134 252.443 184.75 252.271 184.412C252.102 184.074 251.86 183.807 251.545 183.612C251.234 183.416 250.866 183.318 250.441 183.318C249.974 183.318 249.57 183.434 249.228 183.666C248.89 183.895 248.63 184.193 248.448 184.561C248.266 184.929 248.174 185.323 248.174 185.744V186.42C248.174 186.997 248.274 187.486 248.473 187.887C248.675 188.285 248.955 188.588 249.313 188.797C249.671 189.002 250.087 189.105 250.561 189.105C250.869 189.105 251.147 189.062 251.396 188.976C251.648 188.886 251.865 188.754 252.047 188.578C252.23 188.399 252.37 188.177 252.47 187.912L253.603 188.23C253.484 188.615 253.283 188.953 253.002 189.244C252.72 189.533 252.372 189.758 251.958 189.92C251.543 190.08 251.078 190.159 250.561 190.159ZM258.61 190.159C257.92 190.159 257.315 189.995 256.795 189.667C256.278 189.339 255.874 188.88 255.582 188.29C255.294 187.7 255.15 187.01 255.15 186.222C255.15 185.426 255.294 184.732 255.582 184.138C255.874 183.545 256.278 183.085 256.795 182.756C257.315 182.428 257.92 182.264 258.61 182.264C259.299 182.264 259.902 182.428 260.419 182.756C260.94 183.085 261.344 183.545 261.632 184.138C261.924 184.732 262.07 185.426 262.07 186.222C262.07 187.01 261.924 187.7 261.632 188.29C261.344 188.88 260.94 189.339 260.419 189.667C259.902 189.995 259.299 190.159 258.61 190.159ZM258.61 189.105C259.133 189.105 259.564 188.971 259.902 188.702C260.24 188.434 260.491 188.081 260.653 187.643C260.815 187.206 260.897 186.732 260.897 186.222C260.897 185.711 260.815 185.236 260.653 184.795C260.491 184.354 260.24 183.998 259.902 183.726C259.564 183.454 259.133 183.318 258.61 183.318C258.086 183.318 257.655 183.454 257.317 183.726C256.979 183.998 256.729 184.354 256.566 184.795C256.404 185.236 256.323 185.711 256.323 186.222C256.323 186.732 256.404 187.206 256.566 187.643C256.729 188.081 256.979 188.434 257.317 188.702C257.655 188.971 258.086 189.105 258.61 189.105ZM268.673 186.878V182.364H269.847V190H268.673V188.707H268.594C268.415 189.095 268.137 189.425 267.759 189.697C267.381 189.965 266.904 190.099 266.327 190.099C265.85 190.099 265.425 189.995 265.054 189.786C264.683 189.574 264.391 189.256 264.179 188.832C263.967 188.404 263.861 187.866 263.861 187.216V182.364H265.034V187.136C265.034 187.693 265.19 188.137 265.502 188.469C265.816 188.8 266.218 188.966 266.705 188.966C266.996 188.966 267.293 188.891 267.595 188.742C267.9 188.593 268.155 188.364 268.36 188.056C268.569 187.748 268.673 187.355 268.673 186.878ZM275.317 182.364V183.358H271.359V182.364H275.317ZM272.513 180.534H273.686V187.812C273.686 188.144 273.734 188.393 273.83 188.558C273.93 188.721 274.056 188.83 274.208 188.886C274.364 188.939 274.528 188.966 274.7 188.966C274.83 188.966 274.936 188.959 275.018 188.946C275.101 188.929 275.168 188.916 275.217 188.906L275.456 189.96C275.376 189.99 275.265 190.02 275.123 190.05C274.98 190.083 274.8 190.099 274.581 190.099C274.25 190.099 273.925 190.028 273.607 189.886C273.292 189.743 273.03 189.526 272.821 189.234C272.616 188.943 272.513 188.575 272.513 188.131V180.534ZM29.233 208V197.818H32.6733C33.4721 197.818 34.125 197.962 34.6321 198.251C35.1425 198.536 35.5204 198.922 35.7656 199.409C36.0109 199.896 36.1335 200.44 36.1335 201.04C36.1335 201.64 36.0109 202.185 35.7656 202.675C35.5237 203.166 35.1491 203.557 34.642 203.849C34.1349 204.137 33.4853 204.281 32.6932 204.281H30.2273V203.188H32.6534C33.2003 203.188 33.6394 203.093 33.9709 202.904C34.3023 202.715 34.5426 202.46 34.6918 202.138C34.8442 201.814 34.9205 201.447 34.9205 201.04C34.9205 200.632 34.8442 200.268 34.6918 199.946C34.5426 199.625 34.3007 199.373 33.9659 199.19C33.6312 199.005 33.187 198.912 32.6335 198.912H30.4659V208H29.233ZM39.1339 197.818V208H37.9606V197.818H39.1339ZM43.53 208.179C43.0461 208.179 42.6069 208.088 42.2125 207.906C41.8181 207.72 41.5049 207.453 41.2729 207.105C41.0409 206.754 40.9249 206.33 40.9249 205.832C40.9249 205.395 41.0111 205.04 41.1834 204.768C41.3558 204.493 41.5861 204.278 41.8745 204.122C42.1628 203.966 42.481 203.85 42.829 203.774C43.1803 203.695 43.5333 203.632 43.888 203.585C44.352 203.526 44.7282 203.481 45.0165 203.451C45.3082 203.418 45.5203 203.363 45.6529 203.287C45.7888 203.211 45.8567 203.078 45.8567 202.889V202.849C45.8567 202.359 45.7225 201.978 45.454 201.706C45.1889 201.434 44.7862 201.298 44.2459 201.298C43.6858 201.298 43.2466 201.421 42.9284 201.666C42.6103 201.911 42.3865 202.173 42.2573 202.452L41.1436 202.054C41.3425 201.59 41.6077 201.229 41.9391 200.97C42.2739 200.708 42.6384 200.526 43.0328 200.423C43.4306 200.317 43.8217 200.264 44.2061 200.264C44.4514 200.264 44.7331 200.294 45.0513 200.354C45.3728 200.41 45.6827 200.528 45.981 200.707C46.2826 200.886 46.5328 201.156 46.7317 201.517C46.9306 201.878 47.03 202.362 47.03 202.969V208H45.8567V206.966H45.7971C45.7175 207.132 45.5849 207.309 45.3993 207.498C45.2137 207.687 44.9668 207.848 44.6586 207.98C44.3503 208.113 43.9741 208.179 43.53 208.179ZM43.709 207.125C44.173 207.125 44.5641 207.034 44.8823 206.852C45.2038 206.669 45.4457 206.434 45.6081 206.146C45.7739 205.857 45.8567 205.554 45.8567 205.236V204.162C45.807 204.222 45.6976 204.276 45.5286 204.326C45.3629 204.372 45.1706 204.414 44.9519 204.45C44.7364 204.483 44.526 204.513 44.3205 204.54C44.1183 204.563 43.9542 204.583 43.8283 204.599C43.5234 204.639 43.2383 204.704 42.9732 204.793C42.7114 204.879 42.4992 205.01 42.3368 205.186C42.1777 205.358 42.0982 205.594 42.0982 205.892C42.0982 206.3 42.249 206.608 42.5506 206.817C42.8555 207.022 43.2417 207.125 43.709 207.125ZM48.9528 208V207.105L53.288 201.537V201.457H49.092V200.364H54.7994V201.298L50.5835 206.827V206.906H54.9386V208H48.9528ZM58.9929 208.179C58.509 208.179 58.0698 208.088 57.6754 207.906C57.281 207.72 56.9678 207.453 56.7358 207.105C56.5038 206.754 56.3878 206.33 56.3878 205.832C56.3878 205.395 56.474 205.04 56.6463 204.768C56.8187 204.493 57.049 204.278 57.3374 204.122C57.6257 203.966 57.9439 203.85 58.2919 203.774C58.6432 203.695 58.9962 203.632 59.3509 203.585C59.8149 203.526 60.1911 203.481 60.4794 203.451C60.7711 203.418 60.9832 203.363 61.1158 203.287C61.2517 203.211 61.3196 203.078 61.3196 202.889V202.849C61.3196 202.359 61.1854 201.978 60.9169 201.706C60.6518 201.434 60.2491 201.298 59.7088 201.298C59.1487 201.298 58.7095 201.421 58.3913 201.666C58.0732 201.911 57.8494 202.173 57.7202 202.452L56.6065 202.054C56.8054 201.59 57.0705 201.229 57.402 200.97C57.7367 200.708 58.1013 200.526 58.4957 200.423C58.8935 200.317 59.2846 200.264 59.669 200.264C59.9143 200.264 60.196 200.294 60.5142 200.354C60.8357 200.41 61.1456 200.528 61.4439 200.707C61.7455 200.886 61.9957 201.156 62.1946 201.517C62.3935 201.878 62.4929 202.362 62.4929 202.969V208H61.3196V206.966H61.2599C61.1804 207.132 61.0478 207.309 60.8622 207.498C60.6766 207.687 60.4297 207.848 60.1214 207.98C59.8132 208.113 59.437 208.179 58.9929 208.179ZM59.1719 207.125C59.6359 207.125 60.027 207.034 60.3452 206.852C60.6667 206.669 60.9086 206.434 61.071 206.146C61.2367 205.857 61.3196 205.554 61.3196 205.236V204.162C61.2699 204.222 61.1605 204.276 60.9915 204.326C60.8258 204.372 60.6335 204.414 60.4148 204.45C60.1993 204.483 59.9889 204.513 59.7834 204.54C59.5812 204.563 59.4171 204.583 59.2912 204.599C58.9863 204.639 58.7012 204.704 58.4361 204.793C58.1742 204.879 57.9621 205.01 57.7997 205.186C57.6406 205.358 57.5611 205.594 57.5611 205.892C57.5611 206.3 57.7119 206.608 58.0135 206.817C58.3184 207.022 58.7045 207.125 59.1719 207.125Z" fill="#E0E0E0"/>
</g>
<defs>
<filter id="filter0_b_1_459" x="-42" y="-42" width="424" height="320" filterUnits="userSpaceOnUse" color-interpolation-filters="sRGB">
<feFlood flood-opacity="0" result="BackgroundImageFix"/>
<feGaussianBlur in="BackgroundImageFix" stdDeviation="21"/>
<feComposite in2="SourceAlpha" operator="in" result="effect1_backgroundBlur_1_459"/>
<feBlend mode="normal" in="SourceGraphic" in2="effect1_backgroundBlur_1_459" result="shape"/>
</filter>
<filter id="filter1_d_1_459" x="20" y="24" width="69.3333" height="56" filterUnits="userSpaceOnUse" color-interpolation-filters="sRGB">
<feFlood flood-opacity="0" result="BackgroundImageFix"/>
<feColorMatrix in="SourceAlpha" type="matrix" values="0 0 0 0 0 0 0 0 0 0 0 0 0 0 0 0 0 0 127 0" result="hardAlpha"/>
<feMorphology radius="8" operator="erode" in="SourceAlpha" result="effect1_dropShadow_1_459"/>
<feOffset dy="8"/>
<feGaussianBlur stdDeviation="8"/>
<feComposite in2="hardAlpha" operator="out"/>
<feColorMatrix type="matrix" values="0 0 0 0 0.392157 0 0 0 0 0.101961 0 0 0 0 0.678431 0 0 0 0.16 0"/>
<feBlend mode="normal" in2="BackgroundImageFix" result="effect1_dropShadow_1_459"/>
<feBlend mode="normal" in="SourceGraphic" in2="effect1_dropShadow_1_459" result="shape"/>
</filter>
<radialGradient id="paint0_radial_1_459" cx="0" cy="0" r="1" gradientUnits="userSpaceOnUse" gradientTransform="translate(3.05822 7.02148) rotate(33.9027) scale(399.675 592.169)">
<stop stop-color="#090017" stop-opacity="0.4"/>
<stop offset="1" stop-color="white" stop-opacity="0"/>
</radialGradient>
<linearGradient id="paint1_linear_1_459" x1="187.947" y1="0" x2="187.947" y2="236" gradientUnits="userSpaceOnUse">
<stop stop-color="#F8F8F8"/>
<stop offset="1" stop-color="#666666"/>
</linearGradient>
<clipPath id="clip0_1_459">
<rect x="28" y="24" width="53.3333" height="40" rx="8" fill="white"/>
</clipPath>
</defs>
</svg>
